<svg width="500" height="500" viewBox="0 0 500 500" fill="none" xmlns="http://www.w3.org/2000/svg">
<path d="M464.86 277.39C450.13 316.82 420.05 359.5 377.72 372.14C313.72 391.24 306.12 442.79 191.56 438.01C174.826 437.394 158.208 434.96 142 430.75C134.088 428.659 126.316 426.071 118.73 423C51.8 395.89 16.89 336.23 14 273.81C10.18 191.7 67.46 152.57 104.69 129.66C141.92 106.75 186.79 18 299.44 21.77C316.643 22.2861 333.729 24.7826 350.36 29.21C388.27 39.47 426.8 62.16 449.2 95.33C450.88 97.83 452.487 100.377 454.02 102.97C484 153.82 484.93 223.63 464.86 277.39Z" fill="#03346E"/>
<path opacity="0.7" d="M464.86 277.39C450.13 316.82 420.05 359.5 377.72 372.14C313.72 391.24 306.12 442.79 191.56 438.01C174.826 437.394 158.208 434.96 142 430.75C134.088 428.659 126.316 426.071 118.73 423C51.8 395.89 16.89 336.23 14 273.81C10.18 191.7 67.46 152.57 104.69 129.66C141.92 106.75 186.79 18 299.44 21.77C316.643 22.2861 333.729 24.7826 350.36 29.21C388.27 39.47 426.8 62.16 449.2 95.33C450.88 97.83 452.487 100.377 454.02 102.97C484 153.82 484.93 223.63 464.86 277.39Z" fill="#6EACDA"/>
<path d="M89 471.33H479" stroke="#263238" stroke-linecap="round" stroke-linejoin="round"/>
<path d="M26 471.33H80" stroke="#263238" stroke-linecap="round" stroke-linejoin="round"/>
<path d="M343 208H337.58V234H343V208Z" fill="#263238" stroke="#263238" stroke-linecap="round" stroke-linejoin="round"/>
<path d="M157.5 181.91L153.47 188.9L195.41 261.54H203.47L157.5 181.91Z" fill="#263238" stroke="#263238" stroke-linecap="round" stroke-linejoin="round"/>
<path d="M276 277.39L271.63 280.57L310.64 308.91L294.07 359.9H302.81L319.38 308.91L276 277.39Z" fill="#263238" stroke="#263238" stroke-linecap="round" stroke-linejoin="round"/>
<path d="M106.53 54.38H90.95V378H106.53V54.38Z" fill="#E2DFD0" stroke="#263238" stroke-linecap="round" stroke-linejoin="round"/>
<path d="M97 54.38V378H361V54.38H97ZM111.53 261.54L157.53 181.92L203.53 261.54H111.53ZM302.81 359.9H249.19L232.63 308.9L276 277.39L319.37 308.91L302.81 359.9ZM343 234H206V208H343V234Z" fill="white" stroke="#263238" stroke-linecap="round" stroke-linejoin="round"/>
<path d="M201 82H121V162H201V82Z" fill="#03346E" stroke="#263238" stroke-linecap="round" stroke-linejoin="round"/>
<path d="M275 162C297.644 162 316 143.644 316 121C316 98.3563 297.644 80 275 80C252.356 80 234 98.3563 234 121C234 143.644 252.356 162 275 162Z" fill="#E2DFD0" stroke="#263238" stroke-linecap="round" stroke-linejoin="round"/>
<path d="M161 278.22L174.16 304.89L203.59 309.16L182.29 329.92L187.32 359.23L161 345.39L134.68 359.23L139.71 329.92L118.41 309.16L147.84 304.89L161 278.22Z" fill="#E2DFD0" stroke="#263238" stroke-linecap="round" stroke-linejoin="round"/>
<path d="M27.51 297.02L41.21 428.29" stroke="#263238" stroke-width="2" stroke-linecap="round" stroke-linejoin="round"/>
<path d="M39 403.17L32.79 396.61" stroke="#263238" stroke-width="2" stroke-linecap="round" stroke-linejoin="round"/>
<path d="M34.68 398.57C34.6653 397.566 34.4364 396.576 34.0088 395.667C33.5811 394.758 32.9644 393.951 32.2 393.3C30.61 391.88 22.2 388.35 21.42 391.3C20.56 394.52 29.15 400.83 34.68 398.57Z" fill="#E2DFD0" stroke="#263238" stroke-linecap="round" stroke-linejoin="round"/>
<path d="M34.68 398.57L26.69 393.6" stroke="#263238" stroke-width="0.5" stroke-linecap="round" stroke-linejoin="round"/>
<path d="M40.56 418.1L34.35 411.54" stroke="#263238" stroke-width="2" stroke-linecap="round" stroke-linejoin="round"/>
<path d="M36.23 413.5C36.2204 412.496 35.9948 411.505 35.5687 410.596C35.1425 409.687 34.5256 408.88 33.76 408.23C32.17 406.81 23.76 403.23 22.98 406.23C22.12 409.45 30.7 415.76 36.23 413.5Z" fill="#E2DFD0" stroke="#263238" stroke-linecap="round" stroke-linejoin="round"/>
<path d="M36.23 413.5L28.25 408.52" stroke="#263238" stroke-width="0.5" stroke-linecap="round" stroke-linejoin="round"/>
<path d="M35.2 366.74L28.99 360.18" stroke="#263238" stroke-width="2" stroke-linecap="round" stroke-linejoin="round"/>
<path d="M30.87 362.14C30.8604 361.136 30.6349 360.145 30.2087 359.236C29.7825 358.327 29.1656 357.52 28.4 356.87C26.81 355.45 18.4 351.92 17.62 354.87C16.76 358.09 25.34 364.4 30.87 362.14Z" fill="#E2DFD0" stroke="#263238" stroke-linecap="round" stroke-linejoin="round"/>
<path d="M30.87 362.14L22.89 357.16" stroke="#263238" stroke-width="0.5" stroke-linecap="round" stroke-linejoin="round"/>
<path d="M36.76 381.67L30.55 375.11" stroke="#263238" stroke-width="2" stroke-linecap="round" stroke-linejoin="round"/>
<path d="M32.43 377.07C32.4253 376.069 32.206 375.08 31.7868 374.171C31.3676 373.262 30.7583 372.454 30 371.8C28.41 370.38 20 366.85 19.22 369.8C18.31 373 26.9 379.33 32.43 377.07Z" fill="#E2DFD0" stroke="#263238" stroke-linecap="round" stroke-linejoin="round"/>
<path d="M32.43 377.07L24.45 372.09" stroke="#263238" stroke-width="0.5" stroke-linecap="round" stroke-linejoin="round"/>
<path d="M32.67 342.48L26.46 335.92" stroke="#263238" stroke-width="2" stroke-linecap="round" stroke-linejoin="round"/>
<path d="M28.34 337.89C28.3304 336.886 28.1048 335.895 27.6786 334.986C27.2525 334.077 26.6356 333.27 25.87 332.62C24.28 331.2 15.87 327.67 15.09 330.62C14.23 333.84 22.81 340.15 28.34 337.89Z" fill="#E2DFD0" stroke="#263238" stroke-linecap="round" stroke-linejoin="round"/>
<path d="M28.34 337.89L20.36 332.91" stroke="#263238" stroke-width="0.5" stroke-linecap="round" stroke-linejoin="round"/>
<path d="M30.12 318.13L23.91 311.57" stroke="#263238" stroke-width="2" stroke-linecap="round" stroke-linejoin="round"/>
<path d="M25.8 313.53C25.7904 312.526 25.5649 311.535 25.1387 310.626C24.7125 309.717 24.0956 308.91 23.33 308.26C21.74 306.84 13.33 303.31 12.55 306.26C11.68 309.48 20.27 315.79 25.8 313.53Z" fill="#E2DFD0" stroke="#263238" stroke-linecap="round" stroke-linejoin="round"/>
<path d="M25.8 313.53L17.81 308.55" stroke="#263238" stroke-width="0.5" stroke-linecap="round" stroke-linejoin="round"/>
<path d="M37.96 394.33L42.68 386.63" stroke="#263238" stroke-width="2" stroke-linecap="round" stroke-linejoin="round"/>
<path d="M41.24 389C41.0457 388.015 41.0638 386.999 41.2931 386.021C41.5225 385.044 41.9578 384.126 42.57 383.33C43.84 381.61 51.32 376.42 52.7 379.15C54.22 382.06 47.12 390 41.24 389Z" fill="#E2DFD0" stroke="#263238" stroke-linecap="round" stroke-linejoin="round"/>
<path d="M41.24 388.95L48.43 382.07" stroke="#263238" stroke-width="0.5" stroke-linecap="round" stroke-linejoin="round"/>
<path d="M33.86 355.05L38.58 347.35" stroke="#263238" stroke-width="2" stroke-linecap="round" stroke-linejoin="round"/>
<path d="M37.14 349.66C36.9471 348.676 36.966 347.663 37.1953 346.687C37.4246 345.711 37.8592 344.795 38.47 344C39.73 342.28 47.22 337.09 48.6 339.82C50.12 342.78 43 350.73 37.14 349.66Z" fill="#E2DFD0" stroke="#263238" stroke-linecap="round" stroke-linejoin="round"/>
<path d="M37.14 349.66L44.33 342.78" stroke="#263238" stroke-width="0.5" stroke-linecap="round" stroke-linejoin="round"/>
<path d="M32.05 337.78L36.78 330.08" stroke="#263238" stroke-width="2" stroke-linecap="round" stroke-linejoin="round"/>
<path d="M35.34 332.39C35.1432 331.406 35.1601 330.392 35.3896 329.415C35.6191 328.439 36.0557 327.523 36.67 326.73C37.93 325.01 45.41 319.82 46.8 322.55C48.31 325.51 41.21 333.46 35.34 332.39Z" fill="#E2DFD0" stroke="#263238" stroke-linecap="round" stroke-linejoin="round"/>
<path d="M35.34 332.39L42.53 325.52" stroke="#263238" stroke-width="0.5" stroke-linecap="round" stroke-linejoin="round"/>
<path d="M29.41 312.47L34.14 304.77" stroke="#263238" stroke-width="2" stroke-linecap="round" stroke-linejoin="round"/>
<path d="M32.69 307.08C32.4904 306.098 32.5041 305.084 32.7301 304.108C32.9561 303.131 33.3892 302.215 34 301.42C35.26 299.69 42.74 294.51 44.13 297.24C45.67 300.2 38.57 308.15 32.69 307.08Z" fill="#E2DFD0" stroke="#263238" stroke-linecap="round" stroke-linejoin="round"/>
<path d="M32.69 307.08L39.89 300.21" stroke="#263238" stroke-width="0.5" stroke-linecap="round" stroke-linejoin="round"/>
<path d="M27.39 296.29C27.1956 295.305 27.2137 294.289 27.4431 293.311C27.6724 292.334 28.1078 291.416 28.72 290.62C29.99 288.9 37.47 283.71 38.86 286.44C40.37 289.41 33.27 297.35 27.39 296.29Z" fill="#E2DFD0" stroke="#263238" stroke-linecap="round" stroke-linejoin="round"/>
<path d="M27.39 296.29L34.59 289.41" stroke="#263238" stroke-width="0.5" stroke-linecap="round" stroke-linejoin="round"/>
<path d="M27.81 296.58C26.8115 296.674 25.8045 296.551 24.8573 296.222C23.9102 295.892 23.0448 295.363 22.32 294.67C20.74 293.23 16.32 285.24 19.22 284.15C22.33 283 29.49 290.85 27.81 296.58Z" fill="#E2DFD0" stroke="#263238" stroke-linecap="round" stroke-linejoin="round"/>
<path d="M27.81 296.58L21.73 288.71" stroke="#263238" stroke-width="0.5" stroke-linecap="round" stroke-linejoin="round"/>
<path d="M63.64 315.09L50.02 446.38" stroke="#263238" stroke-width="2" stroke-linecap="round" stroke-linejoin="round"/>
<path d="M53.03 421.34L48.3 413.64" stroke="#263238" stroke-width="2" stroke-linecap="round" stroke-linejoin="round"/>
<path d="M49.75 416C49.9454 415.016 49.9269 414.001 49.6957 413.024C49.4645 412.048 49.026 411.132 48.41 410.34C47.15 408.62 39.66 403.43 38.27 406.16C36.77 409.08 43.87 417 49.75 416Z" fill="#E2DFD0" stroke="#263238" stroke-linecap="round" stroke-linejoin="round"/>
<path d="M49.75 415.95L42.96 409.44" stroke="#263238" stroke-width="0.5" stroke-linecap="round" stroke-linejoin="round"/>
<path d="M56.81 384.9L52.09 377.21" stroke="#263238" stroke-width="2" stroke-linecap="round" stroke-linejoin="round"/>
<path d="M53.53 379.52C53.7269 378.534 53.7092 377.517 53.4779 376.539C53.2467 375.561 52.8074 374.643 52.19 373.85C50.93 372.13 43.44 366.95 42.05 369.68C40.55 372.64 47.65 380.59 53.53 379.52Z" fill="#E2DFD0" stroke="#263238" stroke-linecap="round" stroke-linejoin="round"/>
<path d="M53.53 379.52L46.74 373" stroke="#263238" stroke-width="0.5" stroke-linecap="round" stroke-linejoin="round"/>
<path d="M55.26 399.83L50.54 392.14" stroke="#263238" stroke-width="2" stroke-linecap="round" stroke-linejoin="round"/>
<path d="M52 394.45C52.1969 393.464 52.1792 392.447 51.9479 391.469C51.7167 390.491 51.2774 389.573 50.66 388.78C49.4 387.06 41.91 381.88 40.53 384.61C39 387.58 46.1 395.52 52 394.45Z" fill="#E2DFD0" stroke="#263238" stroke-linecap="round" stroke-linejoin="round"/>
<path d="M51.98 394.45L45.19 387.93" stroke="#263238" stroke-width="0.5" stroke-linecap="round" stroke-linejoin="round"/>
<path d="M59.33 360.65L54.6 352.95" stroke="#263238" stroke-width="2" stroke-linecap="round" stroke-linejoin="round"/>
<path d="M56 355.26C56.1968 354.276 56.1799 353.262 55.9504 352.285C55.721 351.309 55.2843 350.393 54.67 349.6C53.4 347.88 45.92 342.7 44.53 345.42C43.06 348.39 50.17 356.34 56 355.26Z" fill="#E2DFD0" stroke="#263238" stroke-linecap="round" stroke-linejoin="round"/>
<path d="M56.04 355.26L49.25 348.75" stroke="#263238" stroke-width="0.5" stroke-linecap="round" stroke-linejoin="round"/>
<path d="M61.86 336.29L57.13 328.59" stroke="#263238" stroke-width="2" stroke-linecap="round" stroke-linejoin="round"/>
<path d="M58.57 330.9C58.7668 329.916 58.7499 328.902 58.5204 327.925C58.2909 326.949 57.8543 326.033 57.24 325.24C55.97 323.52 48.49 318.34 47.1 321.07C45.59 324 52.69 332 58.57 330.9Z" fill="#E2DFD0" stroke="#263238" stroke-linecap="round" stroke-linejoin="round"/>
<path d="M58.57 330.9L51.78 324.39" stroke="#263238" stroke-width="0.5" stroke-linecap="round" stroke-linejoin="round"/>
<path d="M53.83 412.48L60.04 405.91" stroke="#263238" stroke-width="2" stroke-linecap="round" stroke-linejoin="round"/>
<path d="M58.15 407.88C58.1596 406.876 58.3852 405.885 58.8113 404.976C59.2375 404.067 59.8544 403.26 60.62 402.61C62.21 401.19 70.62 397.61 71.4 400.61C72.27 403.82 63.68 410.14 58.15 407.88Z" fill="#E2DFD0" stroke="#263238" stroke-linecap="round" stroke-linejoin="round"/>
<path d="M58.15 407.88L66.6 402.64" stroke="#263238" stroke-width="0.5" stroke-linecap="round" stroke-linejoin="round"/>
<path d="M57.91 373.19L64.11 366.62" stroke="#263238" stroke-width="2" stroke-linecap="round" stroke-linejoin="round"/>
<path d="M62.23 368.59C62.2396 367.586 62.4651 366.595 62.8913 365.686C63.3175 364.777 63.9343 363.97 64.7 363.32C66.29 361.9 74.7 358.32 75.47 361.32C76.34 364.53 67.76 370.85 62.23 368.59Z" fill="#E2DFD0" stroke="#263238" stroke-linecap="round" stroke-linejoin="round"/>
<path d="M62.23 368.59L70.68 363.34" stroke="#263238" stroke-width="0.5" stroke-linecap="round" stroke-linejoin="round"/>
<path d="M59.7 355.92L65.9 349.36" stroke="#263238" stroke-width="2" stroke-linecap="round" stroke-linejoin="round"/>
<path d="M64 351.32C64.011 350.317 64.2373 349.329 64.6634 348.422C65.0895 347.514 65.7056 346.709 66.47 346.06C68.06 344.63 76.47 341.06 77.25 344.06C78.13 347.26 69.55 353.58 64 351.32Z" fill="#E2DFD0" stroke="#263238" stroke-linecap="round" stroke-linejoin="round"/>
<path d="M64.02 351.32L72.47 346.08" stroke="#263238" stroke-width="0.5" stroke-linecap="round" stroke-linejoin="round"/>
<path d="M62.32 330.61L68.53 324.05" stroke="#263238" stroke-width="2" stroke-linecap="round" stroke-linejoin="round"/>
<path d="M66.65 326C66.6584 324.997 66.8824 324.007 67.3068 323.097C67.7312 322.188 68.3462 321.381 69.11 320.73C70.71 319.31 79.11 315.73 79.89 318.73C80.76 322 72.18 328.27 66.65 326Z" fill="#E2DFD0" stroke="#263238" stroke-linecap="round" stroke-linejoin="round"/>
<path d="M66.65 326.01L75.1 320.77" stroke="#263238" stroke-width="0.5" stroke-linecap="round" stroke-linejoin="round"/>
<path d="M63.68 314.36C63.6896 313.356 63.9151 312.365 64.3413 311.456C64.7675 310.547 65.3844 309.74 66.15 309.09C67.74 307.66 76.15 304.09 76.93 307.09C77.8 310.3 69.21 316.61 63.68 314.36Z" fill="#E2DFD0" stroke="#263238" stroke-linecap="round" stroke-linejoin="round"/>
<path d="M63.68 314.36L72.13 309.11" stroke="#263238" stroke-width="0.5" stroke-linecap="round" stroke-linejoin="round"/>
<path d="M64 314.73C62.9999 314.619 62.0356 314.293 61.1727 313.775C60.3099 313.258 59.5688 312.56 59 311.73C57.75 309.99 55.12 301.28 58.14 300.8C61.47 300.27 66.85 309.47 64 314.73Z" fill="#E2DFD0" stroke="#263238" stroke-linecap="round" stroke-linejoin="round"/>
<path d="M64.03 314.73L59.7 305.78" stroke="#263238" stroke-width="0.5" stroke-linecap="round" stroke-linejoin="round"/>
<path d="M48.03 261.64V427.65" stroke="#263238" stroke-width="2" stroke-linecap="round" stroke-linejoin="round"/>
<path d="M48.16 402.69L42.67 395.52" stroke="#263238" stroke-width="2" stroke-linecap="round" stroke-linejoin="round"/>
<path d="M44.34 397.67C44.435 396.67 44.3135 395.661 43.984 394.712C43.6544 393.763 43.1244 392.896 42.43 392.17C40.99 390.59 33.01 386.17 31.91 389.07C30.72 392.17 38.6 399.34 44.34 397.67Z" fill="#E2DFD0" stroke="#263238" stroke-linecap="round" stroke-linejoin="round"/>
<path d="M44.34 397.67L36.91 391.89" stroke="#263238" stroke-width="0.5" stroke-linecap="round" stroke-linejoin="round"/>
<path d="M48.16 371.49L42.67 364.32" stroke="#263238" stroke-width="2" stroke-linecap="round" stroke-linejoin="round"/>
<path d="M44.34 366.47C44.4306 365.475 44.307 364.472 43.9775 363.528C43.6481 362.585 43.1204 361.723 42.43 361C40.99 359.41 33.01 355 31.91 357.89C30.72 361 38.6 368.14 44.34 366.47Z" fill="#E2DFD0" stroke="#263238" stroke-linecap="round" stroke-linejoin="round"/>
<path d="M44.34 366.47L36.91 360.69" stroke="#263238" stroke-width="0.5" stroke-linecap="round" stroke-linejoin="round"/>
<path d="M48.16 334.86L42.67 327.69" stroke="#263238" stroke-width="2" stroke-linecap="round" stroke-linejoin="round"/>
<path d="M44.34 329.84C44.4335 328.841 44.3113 327.835 43.9818 326.887C43.6523 325.94 43.1231 325.075 42.43 324.35C40.99 322.76 33.01 318.35 31.91 321.24C30.72 324.35 38.6 331.52 44.34 329.84Z" fill="#E2DFD0" stroke="#263238" stroke-linecap="round" stroke-linejoin="round"/>
<path d="M44.34 329.84L36.91 324.06" stroke="#263238" stroke-width="0.5" stroke-linecap="round" stroke-linejoin="round"/>
<path d="M48.16 310.48L42.67 303.31" stroke="#263238" stroke-width="2" stroke-linecap="round" stroke-linejoin="round"/>
<path d="M44.34 305.46C44.435 304.46 44.3135 303.451 43.984 302.502C43.6544 301.553 43.1244 300.686 42.43 299.96C40.99 298.38 33.01 293.96 31.91 296.86C30.72 300 38.6 307.13 44.34 305.46Z" fill="#E2DFD0" stroke="#263238" stroke-linecap="round" stroke-linejoin="round"/>
<path d="M44.34 305.46L36.91 299.68" stroke="#263238" stroke-width="0.5" stroke-linecap="round" stroke-linejoin="round"/>
<path d="M48.16 285.99L42.67 278.82" stroke="#263238" stroke-width="2" stroke-linecap="round" stroke-linejoin="round"/>
<path d="M44.34 281C44.435 280 44.3135 278.991 43.984 278.042C43.6544 277.093 43.1244 276.226 42.43 275.5C40.99 273.92 33.01 269.5 31.91 272.4C30.72 275.47 38.6 282.64 44.34 281Z" fill="#E2DFD0" stroke="#263238" stroke-linecap="round" stroke-linejoin="round"/>
<path d="M44.34 280.97L36.91 275.19" stroke="#263238" stroke-width="0.5" stroke-linecap="round" stroke-linejoin="round"/>
<path d="M48.04 412.22L53.54 405.05" stroke="#263238" stroke-width="2" stroke-linecap="round" stroke-linejoin="round"/>
<path d="M51.87 407.2C51.775 406.2 51.8964 405.191 52.226 404.242C52.5556 403.293 53.0856 402.426 53.78 401.7C55.22 400.12 63.19 395.7 64.29 398.59C65.49 401.7 57.6 408.87 51.87 407.2Z" fill="#E2DFD0" stroke="#263238" stroke-linecap="round" stroke-linejoin="round"/>
<path d="M51.87 407.2L59.73 401.11" stroke="#263238" stroke-width="0.5" stroke-linecap="round" stroke-linejoin="round"/>
<path d="M48.04 362.6L53.54 355.43" stroke="#263238" stroke-width="2" stroke-linecap="round" stroke-linejoin="round"/>
<path d="M51.87 357.58C51.775 356.58 51.8964 355.571 52.226 354.622C52.5556 353.673 53.0856 352.806 53.78 352.08C55.22 350.5 63.19 346.08 64.29 348.97C65.49 352.08 57.6 359.25 51.87 357.58Z" fill="#E2DFD0" stroke="#263238" stroke-linecap="round" stroke-linejoin="round"/>
<path d="M51.87 357.58L59.73 351.49" stroke="#263238" stroke-width="0.5" stroke-linecap="round" stroke-linejoin="round"/>
<path d="M48.04 338.11L53.54 330.94" stroke="#263238" stroke-width="2" stroke-linecap="round" stroke-linejoin="round"/>
<path d="M51.87 333.09C51.775 332.09 51.8964 331.081 52.226 330.132C52.5556 329.183 53.0856 328.316 53.78 327.59C55.22 326.01 63.19 321.59 64.29 324.48C65.49 327.59 57.6 334.76 51.87 333.09Z" fill="#E2DFD0" stroke="#263238" stroke-linecap="round" stroke-linejoin="round"/>
<path d="M51.87 333.09L59.73 327" stroke="#263238" stroke-width="0.5" stroke-linecap="round" stroke-linejoin="round"/>
<path d="M48.04 305.74L53.54 298.57" stroke="#263238" stroke-width="2" stroke-linecap="round" stroke-linejoin="round"/>
<path d="M51.87 300.72C51.775 299.72 51.8964 298.711 52.226 297.762C52.5556 296.813 53.0856 295.946 53.78 295.22C55.22 293.64 63.19 289.22 64.29 292.11C65.49 295.22 57.6 302.39 51.87 300.72Z" fill="#E2DFD0" stroke="#263238" stroke-linecap="round" stroke-linejoin="round"/>
<path d="M51.87 300.72L59.73 294.63" stroke="#263238" stroke-width="0.5" stroke-linecap="round" stroke-linejoin="round"/>
<path d="M48.04 280.29L53.54 273.12" stroke="#263238" stroke-width="2" stroke-linecap="round" stroke-linejoin="round"/>
<path d="M51.87 275.27C51.775 274.27 51.8964 273.261 52.226 272.312C52.5556 271.363 53.0856 270.496 53.78 269.77C55.22 268.19 63.19 263.77 64.29 266.67C65.49 269.77 57.6 276.94 51.87 275.27Z" fill="#E2DFD0" stroke="#263238" stroke-linecap="round" stroke-linejoin="round"/>
<path d="M51.87 275.27L59.73 269.18" stroke="#263238" stroke-width="0.5" stroke-linecap="round" stroke-linejoin="round"/>
<path d="M47.71 264C47.6165 263.001 47.7387 261.995 48.0682 261.047C48.3977 260.1 48.9269 259.235 49.62 258.51C51.06 256.92 59.04 252.51 60.14 255.4C61.33 258.49 53.45 265.65 47.71 264Z" fill="#E2DFD0" stroke="#263238" stroke-linecap="round" stroke-linejoin="round"/>
<path d="M47.71 263.98L55.58 257.89" stroke="#263238" stroke-width="0.5" stroke-linecap="round" stroke-linejoin="round"/>
<path d="M48.1 264.32C47.0956 264.306 46.1058 264.077 45.1969 263.65C44.2881 263.222 43.4811 262.605 42.83 261.84C41.41 260.25 37.89 251.84 40.83 251.06C44.06 250.2 50.36 258.79 48.1 264.32Z" fill="#E2DFD0" stroke="#263238" stroke-linecap="round" stroke-linejoin="round"/>
<path d="M48.1 264.32L42.86 255.86" stroke="#263238" stroke-width="0.5" stroke-linecap="round" stroke-linejoin="round"/>
<path d="M54.86 470.71H37.28L35.08 426.31H57.06L54.86 470.71Z" fill="#E2DFD0" stroke="#263238" stroke-linecap="round" stroke-linejoin="round"/>
<path d="M336 445.33H199V471.33H336V445.33Z" fill="#021526" stroke="#263238" stroke-linecap="round" stroke-linejoin="round"/>
<path d="M336 445.33H204V471.33H336V445.33Z" fill="white" stroke="#263238" stroke-linecap="round" stroke-linejoin="round"/>
<path d="M142 388.83L98.63 420.34L115.19 471.33H168.81L147.26 388.83H142Z" fill="#021526" stroke="#263238" stroke-linecap="round" stroke-linejoin="round"/>
<path d="M147.26 388.83L103.88 420.34L120.45 471.33H174.06L190.63 420.34L147.26 388.83Z" fill="white" stroke="#263238" stroke-linecap="round" stroke-linejoin="round"/>
<path d="M384.75 446C384.75 446 383.25 452.5 381.5 454.75C379.75 457 372.5 461.25 363.5 464.75C357.16 467.21 360.5 469.25 361.25 469.75C365.09 472.31 378.75 471 383.5 471H396.25C398 471 407.25 470 405 462C401.53 449.67 402.5 448.25 402.5 448.25L384.75 446Z" fill="white" stroke="#263238" stroke-linecap="round" stroke-linejoin="round"/>
<path d="M396.25 471C397.81 471 405.34 470.2 405.34 464.34C403.912 465.26 402.369 465.986 400.75 466.5C397.25 467.5 395.5 466.75 377 468C368 468.61 362.75 468.09 359.78 467.39C359.4 468.58 360.78 469.45 361.25 469.75C365.09 472.31 378.75 471 383.5 471H396.25Z" fill="white" stroke="#263238" stroke-linecap="round" stroke-linejoin="round"/>
<path d="M351.76 248.92C351.76 248.92 362.53 260.03 368.76 262.46C374.99 264.89 382.64 250.31 382.64 250.31L349.31 241.31L351.76 248.92Z" fill="white" stroke="#263238" stroke-linecap="round" stroke-linejoin="round"/>
<path d="M372.75 284.5C372.75 284.5 374.25 342 376.25 361.75C378.25 381.5 384.75 435.5 384.75 435.5C384.75 435.5 380.25 438 380.25 439.5C380.533 441.855 380.951 444.192 381.5 446.5C381.5 446.5 387.25 450 391.75 451C396.25 452 404.5 449.5 404.5 449.5L405.25 440L402.75 432L404.5 332L432.5 439.25C432.5 439.25 431.25 442.5 431.5 444C431.75 445.5 437.75 456.25 437.75 456.25C437.75 456.25 438.75 450.5 445.25 451.25C448.897 451.584 452.411 452.784 455.5 454.75C455.5 454.75 456.75 445.25 455.5 442.25C454.25 439.25 449 429.5 448.75 427C448.5 424.5 446.75 418.5 445.75 414C444.75 409.5 440 357 439.5 353.5C439 350 436 307.75 436 307.75L437 290.25C437 290.25 395 288 384.5 286C374 284 374.75 283.25 374.75 283.25L372.75 284.5Z" fill="#263238" stroke="#263238" stroke-linecap="round" stroke-linejoin="round"/>
<path d="M374.3 276.31C374.3 276.31 372.08 285.86 373.64 287.41C375.2 288.96 383.64 292.97 406.73 294.74C429.82 296.51 438.73 294.3 439.61 291.41C440.49 288.52 438.94 279.64 438.94 279.64C438.94 279.64 405.18 280.08 390.52 277.64C375.86 275.2 376.75 273.2 376.75 273.2L374.3 276.31Z" fill="white" stroke="#263238" stroke-linecap="round" stroke-linejoin="round"/>
<path d="M418.75 178.2C418.75 178.2 391.75 185.52 389.06 186.98C386.37 188.44 376.93 255.98 375.26 262.26C373.59 268.54 371.08 275.85 375.05 278.36C379.02 280.87 397.84 285.26 411.43 286.1C425.02 286.94 436.11 285.68 438.62 284.01C441.13 282.34 440.92 282.33 441.33 279.01C441.74 275.69 444.68 252.87 444.89 251.82C445.1 250.77 460.57 202.48 460.57 200.18C460.57 197.88 441.33 182.4 438.2 180.94C435.07 179.48 423.56 178.2 418.75 178.2Z" fill="white" stroke="#263238" stroke-linecap="round" stroke-linejoin="round"/>
<path d="M439.87 188.24C440.921 186.88 441.795 185.391 442.47 183.81C441.119 182.743 439.692 181.777 438.2 180.92C435.06 179.46 423.56 178.2 418.75 178.2L411.86 180.1C411.871 184.86 412.289 189.611 413.11 194.3C414.57 201.2 414.57 208.1 417.5 206.43C420.43 204.76 436.11 193.05 439.87 188.24Z" fill="white" stroke="#263238" stroke-linecap="round" stroke-linejoin="round"/>
<path d="M419.18 140.66C419.18 140.66 411.98 151.91 410.86 154.38C409.74 156.85 402.76 159.55 404.11 162.48C405.46 165.41 409.51 166.08 409.51 166.08C409.51 166.08 408.38 177.78 409.96 179.58C411.54 181.38 418.05 180.48 418.05 180.48C418.05 180.48 417.6 193.48 417.6 197.12C417.6 200.76 433.8 188.58 436.73 185.2C439.66 181.82 438.53 172.2 438.53 172.2C438.53 172.2 447.08 161.4 448.65 156.68C450.22 151.96 445.95 140.48 433.58 136.88C421.21 133.28 419.18 140.66 419.18 140.66Z" fill="white" stroke="#263238" stroke-linecap="round" stroke-linejoin="round"/>
<path d="M416.45 155.14C416.21 156.05 415.68 156.69 415.26 156.57C414.84 156.45 414.69 155.64 414.93 154.74C415.17 153.84 415.71 153.2 416.13 153.31C416.55 153.42 416.69 154.24 416.45 155.14Z" fill="#263238"/>
<path d="M415.8 150.78C415.8 150.78 419.63 149.88 419.85 153.71" stroke="#263238" stroke-linecap="round" stroke-linejoin="round"/>
<path d="M410.63 167.88C410.63 167.88 412.63 169.45 417.63 166.98" stroke="#263238" stroke-linecap="round" stroke-linejoin="round"/>
<path d="M418.05 180.48C418.05 180.48 424.35 180.93 427.95 177.55L418.05 192.4V180.48Z" fill="#263238" stroke="#263238" stroke-linecap="round" stroke-linejoin="round"/>
<path d="M431.78 151.68C426.481 150.557 421.537 148.154 417.38 144.68C410.86 139.05 412.21 132.08 418.5 129.6C424.79 127.12 437.4 128.7 444.83 137.48C452.26 146.26 455.17 150.53 452.25 157.72C449.33 164.91 440.55 174.37 438.08 173.92C435.61 173.47 434.7 169.2 434.93 168.07C435.16 166.94 438.3 162.9 436.05 161.07C433.8 159.24 431.78 160.62 430.43 158.37C429.08 156.12 431.78 151.68 431.78 151.68Z" fill="#263238" stroke="#263238" stroke-linecap="round" stroke-linejoin="round"/>
<path d="M432 162.25C432 162.25 437.18 155.51 439.43 159.55C441.68 163.59 438.53 167.2 436.73 168.33C434.93 169.46 430.65 168.33 430.65 168.33" fill="white"/>
<path d="M432 162.25C432 162.25 437.18 155.51 439.43 159.55C441.68 163.59 438.53 167.2 436.73 168.33C434.93 169.46 430.65 168.33 430.65 168.33" stroke="#263238" stroke-linecap="round" stroke-linejoin="round"/>
<path d="M385.84 174.95H381.88L416.11 258.41H420.06L385.84 174.95Z" fill="#A29F8E" stroke="#263238" stroke-linecap="round" stroke-linejoin="round"/>
<path d="M381.88 174.95L326.72 246.32L416.11 258.41L381.88 174.95Z" fill="#E2DFD0" stroke="#263238" stroke-linecap="round" stroke-linejoin="round"/>
<path d="M444 213L444.75 238.75C444.75 238.75 442 236.5 442 237.5C441.875 238.527 441.623 239.535 441.25 240.5C440.048 244.669 439.212 248.936 438.75 253.25C438.25 259.25 439.5 260.5 444.25 263.5C449 266.5 458.25 271.75 461.75 271.25C465.25 270.75 468.5 268.75 468.75 261C469 253.25 465.75 247 465.75 245.5C465.75 244 467 237.5 466.75 236.25C466.5 235 464.5 231.5 464.5 230.75C464.5 230 465.75 204.25 463.25 200.5C460.75 196.75 451 193.25 451 193.25" fill="white"/>
<path d="M444 213L444.75 238.75C444.75 238.75 442 236.5 442 237.5C441.875 238.527 441.623 239.535 441.25 240.5C440.048 244.669 439.212 248.936 438.75 253.25C438.25 259.25 439.5 260.5 444.25 263.5C449 266.5 458.25 271.75 461.75 271.25C465.25 270.75 468.5 268.75 468.75 261C469 253.25 465.75 247 465.75 245.5C465.75 244 467 237.5 466.75 236.25C466.5 235 464.5 231.5 464.5 230.75C464.5 230 465.75 204.25 463.25 200.5C460.75 196.75 451 193.25 451 193.25" stroke="#263238" stroke-linecap="round" stroke-linejoin="round"/>
<path d="M413.75 226.75C413.75 226.75 403 215 401 214.5C399 214 396.25 215.5 393.75 216.75C391.25 218 391.75 219 391.75 219.75C391.789 220.504 391.873 221.256 392 222C392 222 387 227.75 387.75 228.75C388.5 229.75 390.75 228.5 390.75 228.5C390.75 228.5 387.25 232 390.5 232C392.435 232.005 394.335 231.486 396 230.5C396 230.5 394.75 232 397.5 232C399.473 231.909 401.417 231.487 403.25 230.75C403.25 230.75 406.5 233.5 408 234.5C409.5 235.5 412.25 235 412.25 235C412.25 235 437 258 440.75 259C444.5 260 448 254.75 448.25 250.25C448.5 245.75 446.75 243 442.75 241.5C438.75 240 415.75 228.5 415.75 228.5L413.75 226.75Z" fill="white" stroke="#263238" stroke-linecap="round" stroke-linejoin="round"/>
<path d="M392 222L398.5 218.25" stroke="#263238" stroke-linecap="round" stroke-linejoin="round"/>
<path d="M390.75 228.5C390.75 228.5 396.25 223.75 397 223.25C398.549 222.504 400.134 221.837 401.75 221.25" stroke="#263238" stroke-linecap="round" stroke-linejoin="round"/>
<path d="M396 230.5L401 227L404.25 226" stroke="#263238" stroke-linecap="round" stroke-linejoin="round"/>
<path d="M459.45 251C460.145 251.775 460.749 252.627 461.25 253.54" stroke="#263238" stroke-linecap="round" stroke-linejoin="round"/>
<path d="M444.5 241.25C448.729 243.023 452.72 245.318 456.38 248.08" stroke="#263238" stroke-linecap="round" stroke-linejoin="round"/>
<path d="M462 241.75C457.436 239.77 452.464 238.912 447.5 239.25" stroke="#263238" stroke-linecap="round" stroke-linejoin="round"/>
<path d="M352.55 210.58C352.35 210.161 352.041 209.802 351.656 209.542C351.271 209.282 350.824 209.129 350.36 209.1C349.2 208.97 347.95 209.1 348.36 210.39C349.06 212.67 351.36 219.12 353.73 218.17C356.1 217.22 352.56 210.58 352.56 210.58H352.55Z" fill="white" stroke="#263238" stroke-linecap="round" stroke-linejoin="round"/>
<path d="M348.58 212.67C348.377 212.253 348.068 211.896 347.684 211.636C347.299 211.376 346.853 211.222 346.39 211.19C345.23 211.06 343.97 211.19 344.39 212.48C345.09 214.76 347.39 221.21 349.76 220.27C352.13 219.33 348.6 212.67 348.6 212.67H348.58Z" fill="white" stroke="#263238" stroke-linecap="round" stroke-linejoin="round"/>
<path d="M344.68 216.51C344.443 216.184 344.129 215.922 343.766 215.747C343.403 215.573 343.002 215.491 342.6 215.51C341.6 215.51 340.55 215.76 341.09 216.81C342.03 218.67 344.99 223.91 346.82 222.87C348.65 221.83 344.68 216.55 344.68 216.55V216.51Z" fill="white" stroke="#263238" stroke-linecap="round" stroke-linejoin="round"/>
<path d="M342.09 219.78C341.9 219.51 341.647 219.291 341.352 219.143C341.057 218.994 340.73 218.921 340.4 218.93C339.58 218.93 338.73 219.13 339.17 219.99C339.93 221.5 342.34 225.77 343.84 224.92C345.34 224.07 342.09 219.78 342.09 219.78Z" fill="white" stroke="#263238" stroke-linecap="round" stroke-linejoin="round"/>
<path d="M437.75 456.25C438.195 459.731 438.362 463.242 438.25 466.75C438 471.75 440.5 474.75 447.25 476C454 477.25 461.5 473.5 461.75 469.75C462 466 454.75 453.75 454.75 453.75C454.75 453.75 439.75 442.75 437.75 456.25Z" fill="white" stroke="#263238" stroke-linecap="round" stroke-linejoin="round"/>
<path d="M461.75 469.75C461.665 468.244 461.295 466.768 460.66 465.4C460.15 468.25 457.89 474 450.5 474C445.45 474 441 471.31 438.41 469.33C439.08 472.8 441.75 474.98 447.25 476C454 477.25 461.5 473.5 461.75 469.75Z" fill="white" stroke="#263238" stroke-linecap="round" stroke-linejoin="round"/>
</svg>
