<svg xmlns="http://www.w3.org/2000/svg" width="500" height="500" fill="none"><path fill="#4E88BA" d="M462.38 176.94S443.13 95.58 367.27 56s-166.33-22.74-240-11.1-120.53 68-115.52 135.61 64.42 74 109.78 141.79 47.71 93 120.78 124.16 166.91-20.11 203-111 17.07-158.52 17.07-158.52"/><path fill="#E2DFD0" d="M139.74 295.58s-1.86 3.52-.21 6.84 3.73 6.63 2.49 8.29-5 3.73-4.56 7.25 5.39 10.57 2.28 14.5-8.29 3.73-8.49 8.08 5 7.88 3.52 11.82-9.95 4.76-9.95 7.46 3.32 5.59.62 8.49-15.72 10.47-17.59 7.36-5.62-11.71-3.15-23.92c.42-2.05 3.34-2.5 3.75-5.4s-.83-8.08 1.24-11 8.71-3.93 9.12-6.21-2.48-7.88.42-11.4 9.74-5.18 9.74-7.46-2.08-5.18.82-8.29 9.95-6.41 9.95-6.41"/><path stroke="#263238" stroke-linecap="round" stroke-linejoin="round" d="M129.82 320c-4.32 13-11.88 30.67-14.95 39.19-3.72 10.37-7 17.87-8.62 28.23s-2.56 79.75-2.56 79.75M138.7 296.82s-3.52 2.9-6.63 15.54c-.2.82-.43 1.68-.68 2.58"/><path fill="#E2DFD0" d="M75 319.19a6.52 6.52 0 0 1 .16 5.47c-1.32 2.65-3 5.31-2 6.63s4 3 3.65 5.81-4.31 8.45-1.82 11.61 6.63 3 6.8 6.46-4 6.3-2.82 9.46 8 3.81 8 6-2.66 4.47-.5 6.79 12.59 8.38 14.08 5.9 4.45-9.41 2.45-19.18c-.33-1.64-2.67-2-3-4.32s.66-6.47-1-8.79-7-3.15-7.29-5 2-6.3-.33-9.12-7.8-4.14-7.8-6 1.66-4.14-.66-6.63-7.92-5.09-7.92-5.09"/><path stroke="#263238" stroke-linecap="round" stroke-linejoin="round" d="M82.91 338.73c3.45 10.42 9.5 24.55 12 31.37 3 8.29 5.58 14.29 6.9 22.58s2.05 63.83 2.05 63.83M75.8 320.18s2.82 2.32 5.3 12.44c.16.65.35 1.34.55 2.06"/><path fill="#E2DFD0" d="M132 366.14a5.5 5.5 0 0 0-.14 4.57c1.11 2.22 2.5 4.44 1.67 5.55s-3.33 2.49-3 4.85 3.6 7.06 1.52 9.69-5.54 2.5-5.68 5.41 3.33 5.26 2.36 7.9-6.65 3.18-6.65 5 2.21 3.74.41 5.68-10.51 7-11.76 4.93-3.75-7.84-2.1-16c.27-1.37 2.22-1.67 2.5-3.61s-.55-5.41.83-7.35 5.82-2.63 6.1-4.15-1.66-5.27.28-7.62 6.51-3.47 6.51-5-1.39-3.46.55-5.54 6.6-4.31 6.6-4.31"/><path stroke="#263238" stroke-linecap="round" stroke-linejoin="round" d="M125.36 382.47c-2.89 8.71-7.94 20.51-10 26.21-2.5 6.93-4.67 11.94-5.77 18.87s-1.71 32.64-1.71 32.64M131.3 367s-2.36 1.94-4.43 10.4c-.14.54-.29 1.12-.46 1.72"/><path fill="#E2DFD0" d="M60.63 362.69a5.47 5.47 0 0 1 1.18 4.42c-.57 2.41-1.42 4.89-.35 5.78s3.8 1.66 4.07 4-1.89 7.7.74 9.79 6 1.16 6.77 4-2 5.89-.49 8.23 7.2 1.58 7.62 3.33-1.31 4.15.89 5.62 11.84 4.41 12.58 2.1 1.86-8.48-1.61-16.05c-.59-1.27-2.56-1.12-3.27-2.94s-.7-5.39-2.49-7-6.27-1.23-6.89-2.65.42-5.51-2-7.36-7.13-1.88-7.48-3.36.56-3.69-1.81-5.27-7.46-2.64-7.46-2.64"/><path stroke="#263238" stroke-linecap="round" stroke-linejoin="round" d="M70.82 377.07c4.8 7.82 12.42 18.14 15.73 23.22 4 6.18 8.82 10.12 9.93 17S98.19 450 98.19 450M61.49 363.34s2.74 1.35 6.69 9.1c.26.5.54 1 .85 1.58"/><path fill="#263238" stroke="#263238" stroke-linecap="round" stroke-linejoin="round" d="M109.84 475H94.43c-8.11-4.19-13.87-14.77-13.87-27.17A34.6 34.6 0 0 1 87 427h30.23a34.6 34.6 0 0 1 6.48 20.78c0 12.43-5.76 23.01-13.87 27.22"/><path fill="#263238" stroke="#263238" stroke-linecap="round" stroke-linejoin="round" d="M94.15 474.98h15.69v2.3H94.15zM249.54 112.63s10.69 1.62 15.83 10.94c3.62 6.54-1.43 18.72 3.17 22.17s6.91.87 8.64 6-3.17 8.07-1.73 10.37 3.46 2.88 3.46 6.91-7.49 7.2-10.08 6.62-6.05-4.32-7.77-3.74-3.17 4.32-8.93 3.74-7.2-3.45-10.66-2-5.76 3.45-9.79 2.59-7.48-4.61-8.92-4-9.22 5.18-15.27 4.32-6.33-6.63-5.18-11.81-1.15-6.33-.86-10.94 7.2-8.07 10.94-9.79 2.31-13 6.06-21.61 20.43-13.23 31.09-9.77"/><path fill="#fff" stroke="#263238" stroke-linecap="round" stroke-linejoin="round" d="M272.2 415.86s-4 35.77-4 36.58.81 9.15 2.15 12.64a17.75 17.75 0 0 0 4.57 7.26c2.16 2.16 3.5 3.77 1.89 4.58s-18 0-18 0a43 43 0 0 0-1.08-7 23 23 0 0 0-1.88-4.84l-.32 11.82h-1.35s-.48-12.36-1-14a30.4 30.4 0 0 1-1.62-8.07c0-2.69 3.5-6.72 3.5-6.72l-2.72-32z"/><path fill="#263238" d="M271.48 422.3h-18.66l-.52-6.17 19.9-.27s-.29 2.62-.72 6.44"/><path fill="#263238" stroke="#263238" stroke-linecap="round" stroke-linejoin="round" d="M257.17 457.55c2.15 5.65 2.69 11.57 4.84 13.18s10.76-.27 10.76-.27l.4-.08q.813 1.054 1.75 2c2.16 2.16 3.5 3.77 1.89 4.58s-18 0-18 0a43 43 0 0 0-1.08-7 23 23 0 0 0-1.88-4.84l-.32 11.82h-1.35s-.48-12.36-1-14a30.4 30.4 0 0 1-1.62-8.07c0-1.64 1.31-3.79 2.33-5.21.7 2.52 1.94 4.34 3.28 7.89"/><path fill="#fff" stroke="#263238" stroke-linecap="round" stroke-linejoin="round" d="M221.36 415.86s2.64 35.77 2.64 36.58-.81 9.15-2.15 12.64a17.75 17.75 0 0 1-4.57 7.26c-2.16 2.16-3.5 3.77-1.89 4.58s18 0 18 0c.167-2.359.528-4.7 1.08-7a23 23 0 0 1 1.88-4.84l.32 11.82h1.34s.49-12.36 1-14a30.4 30.4 0 0 0 1.61-8.07c0-2.69-3.49-6.72-3.49-6.72l4-32z"/><path fill="#263238" d="m221.36 415.86 19.9.27-.78 6.17h-18.64c-.29-3.82-.48-6.44-.48-6.44"/><path fill="#263238" stroke="#263238" stroke-linecap="round" stroke-linejoin="round" d="M235.07 457.55c-2.15 5.65-2.69 11.57-4.84 13.18s-10.76-.27-10.76-.27l-.4-.08a22 22 0 0 1-1.75 2c-2.16 2.16-3.5 3.77-1.89 4.58s18 0 18 0c.167-2.359.528-4.7 1.08-7a23 23 0 0 1 1.88-4.84l.32 11.82h1.34s.49-12.36 1-14a30.4 30.4 0 0 0 1.61-8.07c0-1.64-1.3-3.79-2.32-5.21-.69 2.52-1.93 4.34-3.27 7.89"/><path fill="#fff" d="M290.54 284.28s1.21 25.69.23 42.87-3.88 91.72-3.88 91.72l-35.33 1-1.3-89.78-4.54 89.45-41.16-.32s3.56-74.22 3.56-93.67-2.59-30.79-2.26-40.19 13-16.86 35.65-19.45 41.49 7.13 45.05 11 3.98 7.37 3.98 7.37"/><path fill="#CFCFCF" d="M216.93 272.21c.59-.29 1.2-.57 1.84-.85v148h-1.84zM214.79 273.35l.93-.51v146.45h-.93zM249 267.24a.92.92 0 0 1 .92.92v69.32L248 373.79V268.16q0-.193.077-.372a.9.9 0 0 1 .546-.502.9.9 0 0 1 .377-.046M246.37 267.7a.5.5 0 0 1 .178.032.46.46 0 0 1 .282.428v129.5l-.92 18.15V268.16a.46.46 0 0 1 .46-.46M235.21 419.44V268.16a.468.468 0 0 1 .93 0v151.29zM230.35 268.16a.46.46 0 0 1 .46-.46.5.5 0 0 1 .178.032.46.46 0 0 1 .282.428v151.25h-.92zM232.48 268.16a.94.94 0 0 1 .302-.595.936.936 0 0 1 1.246 0c.17.154.278.366.302.595v151.27h-1.85zM219.66 271l.92-.37v148.7h-.92zM279.16 272.14c.65.31 1.26.62 1.84.93V419h-1.84zM282.81 419h-.92V273.56l.92.54zM251.23 267.7a.5.5 0 0 1 .178.032.46.46 0 0 1 .282.428v151.68h-.13l-.79-54.34v-97.34a.46.46 0 0 1 .46-.46M277 271.16l.92.41v147.55H277zM264.52 267.24c.244 0 .478.097.651.269a.92.92 0 0 1 .269.651v151.3l-1.84.06V268.16a.93.93 0 0 1 .568-.85.9.9 0 0 1 .352-.07M267.25 268.16v151.25h-.92V268.16a.46.46 0 0 1 .46-.46h.19a.45.45 0 0 1 .213.184c.048.084.069.18.057.276M261.93 267.7a.46.46 0 0 1 .46.46v151.39h-.92V268.16a.5.5 0 0 1 .032-.178.46.46 0 0 1 .428-.282"/><path stroke="#263238" stroke-miterlimit="10" d="M290.54 284.28s1.21 25.69.23 42.87-3.88 91.72-3.88 91.72l-35.33 1-1.3-89.78-4.54 89.45-41.16-.32s3.56-74.22 3.56-93.67-2.59-30.79-2.26-40.19 13-16.86 35.65-19.45 41.49 7.13 45.05 11 3.98 7.37 3.98 7.37Z"/><path fill="#263238" stroke="#263238" stroke-linecap="round" stroke-linejoin="round" d="M251.39 274.39s4.8 12.81 4 14.81-5.2 2.4-5.2 2.4l-1.6-16.81s-4 15.21-6 14.81-4-1.6-3.2-4.81 11.61-12.4 11.61-12.4z"/><path fill="#fff" stroke="#263238" stroke-linecap="round" stroke-linejoin="round" d="M245.71 126.83s16.68 10.83 17.29 13.43-.44 12.34-1.52 16.24-5.2 10.83-6.93 12.13-3.47 9.31-1.08 11.7 5.19 2.38 9.31.86 7.8-3.68 10.83-3.46 26.64 6.28 31 7.14 7.58 1.3 8.44 1.52 4.77-.87 5.64-.43 1.73-1.52 4.76-3.9 5.2-4.33 5.2-4.33l10.62 9.27-1.73 3.46s.43 6.07-1.52 9.32-5.41 5.84-8.88 11S320 223 312.85 223s-16.24-7.8-22.53-10.83-11.91-6.06-11.91-6.06 6.28 39.85 10 47.21 11.91 16.46 10 21-4.55 10-7.8 10-38.33-10.61-44.83-10.61-35.73 12.56-39 14.29c0 0 .65 3.47-1.3 3.47s-5-2.82-6.28-6.93 4.76-15.6 5.41-23.18 4.12-34 4.12-34-9.53 26.42-10.83 30.54-7.58 9.31-13 8.45-14.07-5.64-11.69-17.55 13.79-29.27 17.06-35.99 10-21 14.94-26 9.1-4.76 15.81-4.76 13-.87 13.65-3 .43-12.56.43-12.56l-4.55-9.32s-3 1.09-4.11-1.51a17.6 17.6 0 0 1-1.09-5.85s3.47-1.73 11.7-9.75 8.66-13.23 8.66-13.23"/><path fill="#263238" stroke="#263238" stroke-linecap="round" stroke-linejoin="round" d="M254.59 168.63s-4.07 4.05-8.23 2.17a65 65 0 0 1-6.06-3.25s4.52 7.45 12.1 7.45z"/><path stroke="#263238" stroke-linecap="round" stroke-linejoin="round" d="M251.12 147.47a5.87 5.87 0 0 0 2.17 3c1.52.86 0 3-1.52 3.25a4.26 4.26 0 0 1-2.59-.44M252.21 157.87s-3.68 1.73-8-2"/><path fill="#263238" d="M254.75 145.5c0 1.17.47 2.12 1.06 2.12s1.06-1 1.06-2.12-.47-2.13-1.06-2.13-1.06.95-1.06 2.13M243.07 145.5c0 1.17.47 2.12 1.06 2.12s1.06-1 1.06-2.12-.48-2.13-1.06-2.13-1.06.95-1.06 2.13"/><path stroke="#263238" stroke-linecap="round" stroke-linejoin="round" d="M254.1 148.53h8.45a1 1 0 0 0 1-.83l.94-4.6a1 1 0 0 0-.192-.868 1 1 0 0 0-.808-.372h-10.23a1 1 0 0 0-.441.091 1.003 1.003 0 0 0-.559 1.129l.83 4.6a1.05 1.05 0 0 0 1.01.85M237.27 148.53h9.42a1.135 1.135 0 0 0 1.14-.83l1-4.6a1.09 1.09 0 0 0-.273-.893 1.08 1.08 0 0 0-.867-.347h-11.4a1.08 1.08 0 0 0-.863.336 1.09 1.09 0 0 0-.277.884l.93 4.6a1.13 1.13 0 0 0 1.19.85M252.77 142.01h-5.03M252.32 144.28h-3.49M258.39 140.64a3.89 3.89 0 0 0-4.046-1.667 3.9 3.9 0 0 0-1.414.607M247.62 139.58s-2.69-2.78-6.75.31"/><path fill="#263238" stroke="#263238" stroke-linecap="round" stroke-linejoin="round" d="M190.27 212.81c3.25-6.71 10-21 14.94-26s9.1-4.76 15.81-4.76 13-.87 13.65-3c.271-1.474.405-2.971.4-4.47a41.7 41.7 0 0 0 17.33.45c-.19 2.16.07 4.27 1.11 5.32 2.38 2.38 5.19 2.38 9.31.86s7.8-3.68 10.83-3.46 26.64 6.28 31 7.14 7.58 1.3 8.44 1.52 4.77-.87 5.64-.43 1.73-1.52 4.76-3.9 5.2-4.33 5.2-4.33l10.58 9.25-1.73 3.46s.43 6.07-1.52 9.32-5.41 5.84-8.88 11S320 223 312.85 223s-16.24-7.8-22.53-10.83-11.91-6.06-11.91-6.06 6.28 39.85 10 47.21 11.91 16.46 10 21-4.55 10-7.8 10-38.33-10.61-44.83-10.61-35.73 12.56-39 14.29c0 0 .65 3.47-1.3 3.47s-5-2.82-6.28-6.93 4.76-15.6 5.41-23.18 4.12-34 4.12-34-9.53 26.42-10.83 30.54-7.58 9.31-13 8.45-14.07-5.64-11.69-17.55 13.79-29.27 17.06-35.99"/><path stroke="gray" stroke-linecap="round" stroke-linejoin="round" d="m209.45 223.95 5.29-23.03M313.83 187.93s-2.4 6-2 16.81M317 187.13s-2.4 9.61-.8 16.81M193.35 242.37s-6-4.81-13.6 0M280.21 193.54l-1.8 12.56 6.6-11.76M249 272.79s16.41-2.41 18.41-2"/><path fill="#fff" stroke="#263238" stroke-linecap="round" stroke-linejoin="round" d="M198 242.84s-13.16 1.94-15.54 2.8-2.59 10.15 0 13.39 5.61 1.94 9.5.43 11.22-9.07 11.22-9.07zM196.7 240.47l7.12-6.7 1.08 4.75-2.59 3.67z"/><path fill="#fff" stroke="#263238" stroke-linecap="round" stroke-linejoin="round" d="m224.62 224.22 8.75 32.7a1.32 1.32 0 0 1-.225 1.15 1.32 1.32 0 0 1-1.055.51l-22.33-.19a1.34 1.34 0 0 1-1.26-.94l-9.38-31a2.45 2.45 0 0 1 .351-2.122 2.452 2.452 0 0 1 1.889-1.028l20.79-.86a2.45 2.45 0 0 1 2.47 1.78"/><path fill="#fff" stroke="#263238" stroke-linecap="round" stroke-linejoin="round" d="M199 239.89s13.94 1.29 16.68 1.93 2 2.79.4 4.73-7.07 6-9.62 7.52-5.1 1.72-6.47-.43-3.93-12.25-3.34-13.11 2.35-.64 2.35-.64"/><path stroke="#263238" stroke-linecap="round" stroke-linejoin="round" d="m213.82 241.53-14.19 2.87M217.29 243.75l-16.68 4.3M214.15 248.48l-11.77 3.22"/><path fill="#fff" stroke="#263238" stroke-linecap="round" stroke-linejoin="round" d="m328.66 177.73 20.65-24s7.73-13.79 11-17.66 5.24-3.31 5.24-1.93-3 3.59-4.14 5.24a28.7 28.7 0 0 0-2.21 4.69l3.31 7.18a72 72 0 0 1-6.07 5.51 9.6 9.6 0 0 1-3.58 1.38L339.27 187z"/><path fill="#fff" stroke="#263238" stroke-linecap="round" stroke-linejoin="round" d="m360.9 141.06-5.24 6.62 4.69 6.34 5.79-3.31z"/><path stroke="#263238" stroke-linecap="round" stroke-linejoin="round" d="m364.34 147.41-5.63 4.06M362.54 144.65l-5.39 4.56"/><path fill="#fff" d="M349.31 153.75s3.31-12.69 4.69-13.24c1.07-.43 4.66 2.91 6.22 4.43a2.005 2.005 0 0 1 .45 2.27.87.87 0 0 1-1 .54c-1.38-.28-4-2.28-4-2.28s1.1 6.62-1.93 8.28"/><path stroke="#263238" stroke-linecap="round" stroke-linejoin="round" d="M349.31 153.75s3.31-12.69 4.69-13.24c1.07-.43 4.66 2.91 6.22 4.43a2.005 2.005 0 0 1 .45 2.27.87.87 0 0 1-1 .54c-1.38-.28-4-2.28-4-2.28s1.1 6.62-1.93 8.28"/><path fill="#263238" d="M167.15 73.42h29.08a3.19 3.19 0 0 1 3.19 3.19v12.14a3.19 3.19 0 0 1-3.19 3.19h-25.75L164 99.53V76.61a3.18 3.18 0 0 1 3.15-3.19"/><path stroke="#fff" stroke-miterlimit="10" d="M192.64 78.61H171.3M192.64 82.51H171.3M192.64 86.41H171.3"/><path fill="#263238" d="M52.81 202.41H23.74a3.19 3.19 0 0 0-3.19 3.19v12.14a3.19 3.19 0 0 0 3.19 3.19h25.75l6.51 7.59V205.6a3.19 3.19 0 0 0-3.19-3.19"/><path stroke="#fff" stroke-miterlimit="10" d="M27.33 207.6h21.33M27.33 211.5h21.33M27.33 215.39h21.33"/><path fill="#263238" d="M432.21 212.09h29.08a3.2 3.2 0 0 1 2.255.928 3.17 3.17 0 0 1 .935 2.252v12.15a3.19 3.19 0 0 1-.935 2.252 3.16 3.16 0 0 1-2.255.928h-25.75l-6.54 7.6v-22.93a3.18 3.18 0 0 1 1.984-2.947 3.2 3.2 0 0 1 1.226-.233"/><path stroke="#fff" stroke-miterlimit="10" d="M457.7 217.28h-21.34M457.7 221.18h-21.34M457.7 225.07h-21.34"/><g filter="url(#a)"><path fill="#fff" d="M295.59 292.7h-29.08a3.193 3.193 0 0 0-3.19 3.19V308a3.193 3.193 0 0 0 3.19 3.19h25.75l6.52 7.59v-22.89a3.193 3.193 0 0 0-3.19-3.19"/><path stroke="#fff" stroke-miterlimit="10" d="M295.59 292.7h-29.08a3.193 3.193 0 0 0-3.19 3.19V308a3.193 3.193 0 0 0 3.19 3.19h25.75l6.52 7.59v-22.89a3.193 3.193 0 0 0-3.19-3.19Z"/></g><path stroke="#03346E" stroke-miterlimit="10" d="M270.1 297.89h21.34M270.1 301.79h21.34M270.1 305.69h21.34"/><path stroke="#fff" stroke-miterlimit="10" d="M450.52 272.05h-28.75"/><path fill="#fff" stroke="#021526" stroke-miterlimit="10" d="M136.58 214.41h26.16v21.51h-26.16z"/><path stroke="#021526" stroke-miterlimit="10" d="m162.45 226.03-9.89-6.39-5.81 7.85-4.94-2.62-4.65 5.52M139.78 219.64a3.2 3.2 0 0 0 1.978 2.957 3.2 3.2 0 1 0-1.978-2.957Z"/><path fill="#fff" stroke="#021526" stroke-linecap="round" stroke-linejoin="round" d="M137.94 95.8h17.9V75.27l-4.71-4.53h-13.19z"/><path fill="#fff" stroke="#021526" stroke-linecap="round" stroke-linejoin="round" d="M155.84 75.27h-4.87v-4.53zM118.37 95.8h17.9V75.27l-4.71-4.53h-13.19z"/><path fill="#fff" stroke="#021526" stroke-linecap="round" stroke-linejoin="round" d="M136.27 75.27h-4.87v-4.53zM98.8 95.8h17.9V75.27l-4.71-4.53H98.8z"/><path fill="#fff" stroke="#021526" stroke-linecap="round" stroke-linejoin="round" d="M116.7 75.27h-4.87v-4.53z"/><path stroke="#fff" stroke-miterlimit="10" d="M458.85 333.89h-55.83M430.9 333.89V315.5"/><path fill="#021526" stroke="#fff" stroke-miterlimit="10" d="M454.926 343.357c-5.23-2.167-7.714-8.163-5.548-13.393s8.163-7.713 13.393-5.547 7.713 8.162 5.547 13.392-8.162 7.714-13.392 5.548Z"/><path fill="#03346E" stroke="#fff" stroke-miterlimit="10" d="m450.71 340.1 8.42-4.77v-11.68a10.26 10.26 0 0 1 8.551 5.011 10.247 10.247 0 0 1-7.906 15.446 10.25 10.25 0 0 1-9.065-4.007Z"/><path fill="#021526" stroke="#fff" stroke-miterlimit="10" d="M452.84 333.89a5.998 5.998 0 0 0 7.171 5.885 6.01 6.01 0 0 0 4.714-4.714 6.01 6.01 0 0 0-2.552-6.16 5.998 5.998 0 0 0-9.333 4.989ZM426.973 343.361c-5.23-2.167-7.713-8.163-5.547-13.393s8.162-7.713 13.392-5.547 7.714 8.162 5.548 13.392-8.163 7.714-13.393 5.548Z"/><path fill="#03346E" stroke="#fff" stroke-miterlimit="10" d="m422.76 340.1 8.41-4.77v-11.68a10.25 10.25 0 0 1 8.558 5.004 10.25 10.25 0 0 1 .318 9.909 10.25 10.25 0 0 1-17.286 1.537Z"/><path fill="#000" stroke="#fff" stroke-miterlimit="10" d="M424.89 333.89a5.998 5.998 0 0 0 7.171 5.885 6.01 6.01 0 0 0 4.714-4.714 6.01 6.01 0 0 0-2.552-6.16 5.998 5.998 0 0 0-9.333 4.989Z"/><path fill="#021526" stroke="#fff" stroke-miterlimit="10" d="M392.978 336.275c-1.316-5.506 2.081-11.036 7.587-12.351 5.505-1.316 11.035 2.081 12.351 7.586s-2.081 11.036-7.587 12.352-11.036-2.081-12.351-7.587Z"/><path fill="#03346E" stroke="#fff" stroke-miterlimit="10" d="m394.81 340.1 8.41-4.77v-11.68a10.25 10.25 0 1 1-8.41 16.45Z"/><path fill="#021526" stroke="#fff" stroke-miterlimit="10" d="M396.93 333.89a5.998 5.998 0 0 0 7.171 5.885 6.01 6.01 0 0 0 4.714-4.714 6.01 6.01 0 0 0-2.552-6.16 5.998 5.998 0 0 0-9.333 4.989Z"/><path stroke="#fff" stroke-miterlimit="10" d="M365.59 165.92c-17.541 0-31.76-14.219-31.76-31.76s14.219-31.76 31.76-31.76 31.76 14.219 31.76 31.76-14.219 31.76-31.76 31.76Z"/><path stroke="#fff" stroke-miterlimit="10" d="M365.59 154.92c-11.465 0-20.76-9.295-20.76-20.76s9.295-20.76 20.76-20.76 20.76 9.295 20.76 20.76-9.295 20.76-20.76 20.76ZM88.83 233l-13 70.5M348.83 237.5l-94.22 13.39M326.83 298l33.5 38M360.33 338.5l49.5-93.5-61-7.5-22 60.5-169.5-112v-52.95"/><path stroke="#fff" stroke-miterlimit="10" d="m409.83 245 16.5-65-60.74-45.84L317.7 133M348.83 237.5l77.5-57.5M348.83 237.5l36.55 54.09L427.83 311M299.98 326.28 326.83 298 318 264.23M326.83 298l32.53-11.75M54.45 234.87 88.83 233l35.68 35.9M162.05 104.89 158 131.12l18.06 17.8M158 131.12l-27.31-14.89M105.82 271.89l4.99-16.35M349.32 235.83l2.14-16.95M412.39 243.72l17-1.74M430.33 313.5l6.43-36.59M334.7 94.97l30.89 39.19V59.44H321.6M157.33 186l-68.5 47"/><path fill="#fff" d="M158 136.12a5 5 0 1 1 .001-10.001A5 5 0 0 1 158 136.12"/><path stroke="#fff" stroke-miterlimit="10" d="M149.025 188.7a9.21 9.21 0 0 1 6.933-11.026 9.21 9.21 0 0 1 11.027 6.932c1.13 4.96-1.974 9.897-6.933 11.027a9.21 9.21 0 0 1-11.027-6.933Z"/><path fill="#fff" d="M158 191.66a5 5 0 1 1 .001-10.001A5 5 0 0 1 158 191.66"/><path stroke="#fff" stroke-miterlimit="10" d="M89.14 242.35a9.21 9.21 0 1 1 0-18.42 9.21 9.21 0 0 1 0 18.42Z"/><path fill="#fff" d="M89.14 238.14a5 5 0 1 1 0-10 5 5 0 0 1 0 10"/><path stroke="#fff" stroke-miterlimit="10" d="M318.093 299.76a9.21 9.21 0 1 1 11.105 6.805 9.21 9.21 0 0 1-11.105-6.805Z"/><path fill="#fff" d="M327.05 302.59a5 5 0 1 1 .001-10.001 5 5 0 0 1-.001 10.001"/><path stroke="#fff" stroke-miterlimit="10" d="M356.734 136.038a9.21 9.21 0 0 1 17.916-4.281 9.21 9.21 0 0 1-6.818 11.098c-4.947 1.183-9.916-1.87-11.098-6.817Z"/><path fill="#fff" d="M365.7 138.89a5 5 0 1 1 .001-10.001 5 5 0 0 1-.001 10.001M124.11 271.31a2.5 2.5 0 1 1 0-5 2.5 2.5 0 0 1 0 5M54.83 237.36a2.5 2.5 0 1 1 0-5 2.5 2.5 0 0 1 0 5M175.69 151.15a2.5 2.5 0 1 1 0-5 2.5 2.5 0 0 1 0 5M130.59 118.98a2.5 2.5 0 1 1 0-5 2.5 2.5 0 0 1 0 5M162.43 107.37a2.5 2.5 0 1 1 0-5 2.5 2.5 0 0 1 0 5M360.33 338.5a2.5 2.5 0 1 1 0-5 2.5 2.5 0 0 1 0 5M436.76 279.41a2.5 2.5 0 1 1 0-5 2.5 2.5 0 0 1 0 5M360.02 288.95a2.5 2.5 0 1 1 0-5 2.5 2.5 0 0 1 0 5M318.59 266.77a2.5 2.5 0 1 1 0-5 2.5 2.5 0 0 1 0 5M294.88 326.27a4.735 4.735 0 0 0 2.926 4.379 4.738 4.738 0 0 0 6.463-3.454 4.738 4.738 0 0 0-4.649-5.665 4.75 4.75 0 0 0-4.379 2.926 4.75 4.75 0 0 0-.361 1.814M348.83 240a2.5 2.5 0 1 1 0-5 2.5 2.5 0 0 1 0 5M316.36 135.76a2.5 2.5 0 1 1 0-5 2.5 2.5 0 0 1 0 5M334.7 97.47a2.5 2.5 0 1 1 0-5 2.5 2.5 0 0 1 0 5M426.33 182.5a2.5 2.5 0 1 1 0-5 2.5 2.5 0 0 1 0 5M75.83 308.5a5 5 0 1 1 0-10 5 5 0 0 1 0 10M385.23 296.76a5 5 0 1 1 .001-10.001 5 5 0 0 1-.001 10.001M255.86 256.08a5 5 0 1 1 0-10 5 5 0 0 1 0 10M430.44 316.43a5 5 0 1 1 .001-10.001 5 5 0 0 1-.001 10.001M409.83 250a5 5 0 1 1 .001-10.001A5 5 0 0 1 409.83 250M106.67 274.36a2.502 2.502 0 0 0 1.705-3.473 2.51 2.51 0 0 0-2.367-1.46 2.5 2.5 0 1 0 .662 4.933M350.2 216.58a2.5 2.5 0 0 0-1.52 2.325 2.501 2.501 0 1 0 4.25-1.811 2.505 2.505 0 0 0-2.73-.514M431.35 240.24a2.51 2.51 0 0 0-2.61-.947 2.502 2.502 0 0 0-.704 4.564 2.505 2.505 0 0 0 2.774-.117 2.52 2.52 0 0 0 .54-3.5M444.46 259.59h4.15v12.14h-4.15zM437.43 249.69h4.15v22.04h-4.15zM430.4 253.52h4.15v18.21h-4.15zM423.37 264.06h4.15v7.67h-4.15zM314.93 46.17h2.81a.7.7 0 0 0 .722-.408.69.69 0 0 0-.174-.81.7.7 0 0 0-.548-.172h-2.81a.699.699 0 0 0-.722.982.7.7 0 0 0 .43.381c.094.03.194.039.292.027m-.7 2.53a.7.7 0 0 1 .7-.7h2.81a.699.699 0 0 1 .722.982.7.7 0 0 1-.43.381.7.7 0 0 1-.292.027h-2.81a.69.69 0 0 1-.7-.69m0 3.22a.7.7 0 0 1 .7-.7h2.81a.699.699 0 0 1 .722.982.7.7 0 0 1-.43.381.7.7 0 0 1-.292.027h-2.81a.69.69 0 0 1-.7-.69m0 3.22a.7.7 0 0 1 .7-.7h2.81a.699.699 0 0 1 .722.982.7.7 0 0 1-.43.381.7.7 0 0 1-.292.027h-2.81a.69.69 0 0 1-.7-.69m0 3.22a.7.7 0 0 1 .7-.7h2.81a.699.699 0 0 1 .722.982.7.7 0 0 1-.43.381.7.7 0 0 1-.292.027h-2.81a.69.69 0 0 1-.7-.69m0 3.22q0-.138.054-.266a.69.69 0 0 1 .646-.424h2.81a.69.69 0 0 1 .7.69.7.7 0 0 1-.7.7h-2.81a.7.7 0 0 1-.7-.7m0 3.22q0-.138.054-.266a.69.69 0 0 1 .646-.424h2.81a.699.699 0 0 1 .722.982.7.7 0 0 1-.43.381.7.7 0 0 1-.292.027h-2.81a.7.7 0 0 1-.7-.7m0 3.22q0-.138.054-.266a.69.69 0 0 1 .646-.424h2.81a.699.699 0 0 1 .722.982.7.7 0 0 1-.43.381.7.7 0 0 1-.292.027h-2.81a.7.7 0 0 1-.653-.446.7.7 0 0 1-.047-.274zm-10.54-22.54a.7.7 0 0 1 .199-.494.68.68 0 0 1 .491-.206h7.4a.699.699 0 0 1 .722.982.7.7 0 0 1-.43.381.7.7 0 0 1-.292.027h-7.4a.69.69 0 0 1-.69-.69m0 3.22a.7.7 0 0 1 .199-.494.68.68 0 0 1 .491-.206h7.4a.699.699 0 0 1 .722.982.7.7 0 0 1-.43.381.7.7 0 0 1-.292.027h-7.4a.69.69 0 0 1-.69-.69m0 3.22a.7.7 0 0 1 .199-.494.68.68 0 0 1 .491-.206h7.4a.699.699 0 0 1 .722.982.7.7 0 0 1-.43.381.7.7 0 0 1-.292.027h-7.4a.69.69 0 0 1-.69-.69m0 3.22a.7.7 0 0 1 .199-.494.68.68 0 0 1 .491-.206h7.4a.699.699 0 0 1 .722.982.7.7 0 0 1-.43.381.7.7 0 0 1-.292.027h-7.4a.69.69 0 0 1-.69-.69m0 3.22a.7.7 0 0 1 .199-.494.68.68 0 0 1 .491-.206h7.4a.699.699 0 0 1 .722.982.7.7 0 0 1-.43.381.7.7 0 0 1-.292.027h-7.4a.69.69 0 0 1-.69-.69m-8.86 3.22q0-.138.054-.266a.69.69 0 0 1 .646-.424h7.39a.692.692 0 0 1 .495 1.185.7.7 0 0 1-.495.205h-7.39a.7.7 0 0 1-.7-.7m0 3.22q0-.138.054-.266a.69.69 0 0 1 .646-.424h7.39a.699.699 0 0 1 .722.982.7.7 0 0 1-.43.381.7.7 0 0 1-.292.027h-7.39a.7.7 0 0 1-.7-.7m0 3.22q0-.138.054-.266a.69.69 0 0 1 .646-.424h7.39a.699.699 0 0 1 .722.982.7.7 0 0 1-.43.381.7.7 0 0 1-.292.027h-7.39a.7.7 0 0 1-.653-.446.7.7 0 0 1-.047-.274zm5.6-22.54a.809.809 0 0 1 1.379-.586.81.81 0 0 1 .18.884.81.81 0 0 1-.749.502.81.81 0 0 1-.81-.8m-2.41 0a.811.811 0 0 1 1.605-.165.81.81 0 0 1-.351.833.8.8 0 0 1-.454.132.8.8 0 0 1-.757-.49.8.8 0 0 1-.063-.31zm-2.42 0a.809.809 0 0 1 1.379-.586.81.81 0 0 1 .18.884.81.81 0 0 1-.749.502.81.81 0 0 1-.81-.8m-2.41 0a.811.811 0 0 1 1.605-.165.81.81 0 0 1-.351.833.8.8 0 0 1-.454.132.8.8 0 0 1-.8-.8m-2.42 0a.811.811 0 0 1 1.605-.165.81.81 0 0 1-.351.833.8.8 0 0 1-.454.132.8.8 0 0 1-.8-.8m-2.42 0a.809.809 0 0 1 1.379-.586.81.81 0 0 1 .18.884.81.81 0 0 1-.749.502.81.81 0 0 1-.81-.8m12.08 6.44a.809.809 0 0 1 1.379-.586.81.81 0 0 1 .18.884.81.81 0 0 1-.749.502.81.81 0 0 1-.81-.8m-2.41 0a.811.811 0 0 1 1.605-.166.81.81 0 0 1-.351.834.8.8 0 0 1-.454.132.8.8 0 0 1-.757-.49.8.8 0 0 1-.063-.31zm-2.42 0a.809.809 0 0 1 1.379-.586.81.81 0 0 1 .18.884.81.81 0 0 1-.749.502.81.81 0 0 1-.81-.8m-2.41 0a.811.811 0 0 1 1.605-.166.81.81 0 0 1-.351.834.8.8 0 0 1-.454.132.8.8 0 0 1-.8-.8m-2.42 0a.811.811 0 0 1 1.605-.166.81.81 0 0 1-.351.834.8.8 0 0 1-.454.132.8.8 0 0 1-.8-.8m-2.42 0a.809.809 0 0 1 1.379-.586.81.81 0 0 1 .18.884.81.81 0 0 1-.749.502.81.81 0 0 1-.81-.8m3.83 9.26a.811.811 0 0 1 1.605-.166.81.81 0 0 1-.351.834.8.8 0 0 1-.454.132.8.8 0 0 1-.8-.8m-2.42 0a.809.809 0 0 1 1.379-.586.81.81 0 0 1 .18.884.81.81 0 0 1-.749.502.81.81 0 0 1-.81-.8m-2.41 0a.811.811 0 0 1 1.605-.166.81.81 0 0 1-.351.834.8.8 0 0 1-.454.132.8.8 0 0 1-.8-.8m-2.42 0a.809.809 0 0 1 1.379-.586.81.81 0 0 1 .18.884.81.81 0 0 1-.749.502.81.81 0 0 1-.81-.8m-2.41 0a.811.811 0 0 1 1.605-.166.81.81 0 0 1-.351.834.8.8 0 0 1-.454.132.8.8 0 0 1-.8-.8m-2.42 0a.809.809 0 0 1 1.379-.586.81.81 0 0 1 .18.884.81.81 0 0 1-.749.502.81.81 0 0 1-.81-.8m12.08 6.64a.81.81 0 0 1 .502-.75.812.812 0 0 1 1.104.598.81.81 0 0 1-.806.962.795.795 0 0 1-.742-.5.8.8 0 0 1-.058-.31m-2.42 0a.81.81 0 1 1 .498.751.81.81 0 0 1-.439-.44.8.8 0 0 1-.059-.311m-2.41 0a.81.81 0 0 1 .502-.75.812.812 0 0 1 1.104.598.81.81 0 0 1-.806.962.795.795 0 0 1-.742-.5.8.8 0 0 1-.058-.31m-2.42 0a.81.81 0 1 1 .498.751.81.81 0 0 1-.439-.44.8.8 0 0 1-.059-.311m-2.41 0a.81.81 0 0 1 .502-.75.812.812 0 0 1 1.104.598.81.81 0 0 1-.806.962.795.795 0 0 1-.742-.5.8.8 0 0 1-.058-.31m-2.42 0a.81.81 0 1 1 .498.751.81.81 0 0 1-.439-.44.8.8 0 0 1-.059-.311M314.93 71.94h2.81a.69.69 0 0 0 .7-.69.7.7 0 0 0-.432-.647.7.7 0 0 0-.268-.053h-2.81a.699.699 0 0 0-.494 1.192.69.69 0 0 0 .494.198m-.7 2.53a.7.7 0 0 1 .7-.7h2.81a.699.699 0 1 1 0 1.4h-2.81a.7.7 0 0 1-.7-.7m0 3.22q0-.138.054-.266a.69.69 0 0 1 .646-.424h2.81a.69.69 0 0 1 .647.424.695.695 0 0 1-.152.761.7.7 0 0 1-.495.205h-2.81a.7.7 0 0 1-.7-.7m0 3.22q0-.138.054-.266a.69.69 0 0 1 .646-.424h2.81a.7.7 0 0 1 .722.408.69.69 0 0 1-.174.81.7.7 0 0 1-.548.172h-2.81a.7.7 0 0 1-.7-.7m0 3.22q0-.138.054-.266a.69.69 0 0 1 .646-.424h2.81a.7.7 0 0 1 .722.408.69.69 0 0 1-.174.81.7.7 0 0 1-.548.172h-2.81a.7.7 0 0 1-.7-.7m0 3.22q0-.138.054-.266a.69.69 0 0 1 .646-.424h2.81a.7.7 0 0 1 .722.408.69.69 0 0 1-.174.81.7.7 0 0 1-.548.172h-2.81a.7.7 0 0 1-.7-.7m0 3.22q0-.138.054-.266a.69.69 0 0 1 .646-.424h2.81a.699.699 0 0 1 .722.982.7.7 0 0 1-.43.381.7.7 0 0 1-.292.027h-2.81a.7.7 0 0 1-.7-.7m0 3.23a.7.7 0 0 1 .7-.7h2.81a.699.699 0 0 1 .722.982.7.7 0 0 1-.43.381.7.7 0 0 1-.292.027h-2.81a.69.69 0 0 1-.7-.69m-10.54-22.55a.697.697 0 0 1 .69-.7h7.4a.71.71 0 0 1 .7.7.7.7 0 0 1-.7.69h-7.4a.69.69 0 0 1-.69-.69m0 3.22a.697.697 0 0 1 .69-.7h7.4a.699.699 0 1 1 0 1.4h-7.4a.7.7 0 0 1-.69-.7m0 3.22a.69.69 0 0 1 .69-.69h7.4a.7.7 0 0 1 .7.69.71.71 0 0 1-.7.7h-7.4a.7.7 0 0 1-.69-.7m0 3.22a.69.69 0 0 1 .69-.69h7.4a.7.7 0 0 1 .722.408.69.69 0 0 1-.174.81.7.7 0 0 1-.548.172h-7.4a.69.69 0 0 1-.69-.7m0 3.22a.69.69 0 0 1 .69-.69h7.4a.7.7 0 0 1 .722.408.69.69 0 0 1-.174.81.7.7 0 0 1-.548.172h-7.4a.69.69 0 0 1-.69-.7m-8.86 3.22q0-.138.054-.266a.69.69 0 0 1 .646-.424h7.39a.7.7 0 0 1 .722.408.69.69 0 0 1-.174.81.7.7 0 0 1-.548.172h-7.39a.7.7 0 0 1-.7-.7m0 3.22q0-.138.054-.266a.69.69 0 0 1 .646-.424h7.39a.699.699 0 0 1 .722.982.7.7 0 0 1-.43.381.7.7 0 0 1-.292.027h-7.39a.7.7 0 0 1-.7-.7m0 3.23a.7.7 0 0 1 .7-.7h7.39a.699.699 0 0 1 .722.982.7.7 0 0 1-.43.381.7.7 0 0 1-.292.027h-7.39a.69.69 0 0 1-.7-.69m5.6-22.55a.809.809 0 0 1 1.379-.586.81.81 0 0 1 .18.884.812.812 0 0 1-1.318.268.8.8 0 0 1-.241-.566m-2.41 0a.811.811 0 0 1 1.383-.583.809.809 0 0 1-.583 1.383.8.8 0 0 1-.82-.8zm-2.42 0a.809.809 0 0 1 1.379-.586.81.81 0 0 1 .18.884.812.812 0 0 1-1.318.268.8.8 0 0 1-.241-.566m-2.41 0a.811.811 0 0 1 1.383-.583.809.809 0 0 1-.583 1.383.8.8 0 0 1-.8-.8m-2.42 0a.811.811 0 0 1 1.383-.583.809.809 0 0 1-.583 1.383.8.8 0 0 1-.8-.8m-2.42 0a.809.809 0 0 1 1.379-.586.81.81 0 0 1 .18.884.812.812 0 0 1-1.318.268.8.8 0 0 1-.241-.566m12.08 6.44a.81.81 0 1 1 .498.751.81.81 0 0 1-.439-.44.8.8 0 0 1-.059-.31m-2.41 0a.81.81 0 0 1 .502-.75.812.812 0 0 1 1.104.598.81.81 0 0 1-.806.962.8.8 0 0 1-.82-.81zm-2.42 0a.81.81 0 1 1 .498.751.81.81 0 0 1-.439-.44.8.8 0 0 1-.059-.31m-2.41 0a.81.81 0 0 1 .502-.75.812.812 0 0 1 1.104.598.81.81 0 0 1-.806.962.8.8 0 0 1-.569-.238.8.8 0 0 1-.231-.572m-2.42 0a.81.81 0 0 1 .502-.75.812.812 0 0 1 1.104.598.81.81 0 0 1-.806.962.8.8 0 0 1-.569-.238.8.8 0 0 1-.231-.572m-2.42 0a.81.81 0 1 1 .498.751.81.81 0 0 1-.439-.44.8.8 0 0 1-.059-.31m3.83 9.31a.81.81 0 0 1 .502-.75.813.813 0 0 1 1.104.598.81.81 0 0 1-.806.962.8.8 0 0 1-.569-.238.8.8 0 0 1-.231-.572m-2.42 0a.81.81 0 1 1 .498.751.81.81 0 0 1-.439-.44.8.8 0 0 1-.059-.31m-2.41 0a.81.81 0 0 1 .502-.75.813.813 0 0 1 1.104.598.81.81 0 0 1-.806.962.8.8 0 0 1-.569-.238.8.8 0 0 1-.231-.572m-2.42 0a.81.81 0 1 1 .498.751.81.81 0 0 1-.439-.44.8.8 0 0 1-.059-.31m-2.41 0a.81.81 0 0 1 .502-.75.813.813 0 0 1 1.104.598.81.81 0 0 1-.806.962.8.8 0 0 1-.569-.238.8.8 0 0 1-.231-.572m-2.42 0a.81.81 0 1 1 .498.751.81.81 0 0 1-.439-.44.8.8 0 0 1-.059-.31m12.08 6.64a.81.81 0 0 1 .502-.75.813.813 0 0 1 1.104.598.81.81 0 0 1-.806.962.8.8 0 0 1-.588-.255.8.8 0 0 1-.212-.605zm-2.42 0a.81.81 0 1 1 .81.81.8.8 0 0 1-.81-.86zm-2.41 0a.81.81 0 0 1 .502-.75.813.813 0 0 1 1.104.598.81.81 0 0 1-.806.962.8.8 0 0 1-.588-.255.8.8 0 0 1-.212-.605zm-2.42 0a.81.81 0 1 1 .81.81.8.8 0 0 1-.81-.86zm-2.41 0a.81.81 0 0 1 .502-.75.813.813 0 0 1 1.104.598.81.81 0 0 1-.806.962.8.8 0 0 1-.588-.255.8.8 0 0 1-.212-.605zm-2.42 0a.81.81 0 1 1 .81.81.8.8 0 0 1-.81-.86zM314.93 98.34h2.81a.699.699 0 0 0 .722-.982.7.7 0 0 0-.43-.381.7.7 0 0 0-.292-.027h-2.81a.697.697 0 0 0-.783.695.7.7 0 0 0 .235.524.7.7 0 0 0 .548.171m-.7 2.53a.7.7 0 0 1 .7-.7h2.81a.698.698 0 0 1 .548 1.219.7.7 0 0 1-.548.171h-2.81a.7.7 0 0 1-.494-.199.68.68 0 0 1-.206-.491m0 3.22a.7.7 0 0 1 .7-.7h2.81a.698.698 0 0 1 .548 1.219.7.7 0 0 1-.548.171h-2.81a.7.7 0 0 1-.494-.199.68.68 0 0 1-.206-.491m0 3.22a.7.7 0 0 1 .7-.7h2.81a.698.698 0 0 1 .548 1.219.7.7 0 0 1-.548.171h-2.81a.7.7 0 0 1-.494-.199.68.68 0 0 1-.206-.491m0 3.22a.7.7 0 0 1 .7-.7h2.81a.698.698 0 0 1 .548 1.219.7.7 0 0 1-.548.171h-2.81a.7.7 0 0 1-.494-.199.68.68 0 0 1-.206-.491m0 3.22a.7.7 0 0 1 .7-.7h2.81a.7.7 0 0 1 .647.966.68.68 0 0 1-.38.374.7.7 0 0 1-.267.05h-2.81a.7.7 0 0 1-.494-.199.68.68 0 0 1-.206-.491m0 3.22q0-.139.054-.266a.7.7 0 0 1 .379-.374.7.7 0 0 1 .267-.05h2.81a.7.7 0 0 1 .647.424.7.7 0 0 1-.647.966h-2.81a.7.7 0 0 1-.7-.67zm0 3.22q0-.138.054-.266a.7.7 0 0 1 .379-.374.7.7 0 0 1 .267-.05h2.81a.698.698 0 0 1 .548 1.219.7.7 0 0 1-.548.171h-2.81a.7.7 0 0 1-.7-.7m-10.54-22.54a.7.7 0 0 1 .199-.494.68.68 0 0 1 .491-.206h7.4a.7.7 0 0 1 .722.408.69.69 0 0 1-.174.81.7.7 0 0 1-.548.172h-7.4a.69.69 0 0 1-.69-.69m0 3.22a.7.7 0 0 1 .199-.494.68.68 0 0 1 .491-.206h7.4a.698.698 0 0 1 .548 1.219.7.7 0 0 1-.548.171h-7.4a.693.693 0 0 1-.69-.69m0 3.22a.7.7 0 0 1 .199-.494.68.68 0 0 1 .491-.206h7.4a.698.698 0 0 1 .548 1.219.7.7 0 0 1-.548.171h-7.4a.693.693 0 0 1-.69-.69m0 3.22a.7.7 0 0 1 .199-.494.68.68 0 0 1 .491-.206h7.4a.698.698 0 0 1 .548 1.219.7.7 0 0 1-.548.171h-7.4a.693.693 0 0 1-.69-.69m0 3.22a.7.7 0 0 1 .199-.494.68.68 0 0 1 .491-.206h7.4a.698.698 0 0 1 .548 1.219.7.7 0 0 1-.548.171h-7.4a.693.693 0 0 1-.69-.69m-8.86 3.22a.7.7 0 0 1 .7-.7h7.39a.7.7 0 0 1 .647.966.68.68 0 0 1-.38.374.7.7 0 0 1-.267.05h-7.39a.7.7 0 0 1-.494-.199.68.68 0 0 1-.206-.491m0 3.22q0-.139.054-.266a.7.7 0 0 1 .379-.374.7.7 0 0 1 .267-.05h7.39a.7.7 0 0 1 .494.198.695.695 0 0 1-.494 1.192h-7.39a.7.7 0 0 1-.7-.67zm0 3.22q0-.138.054-.266a.7.7 0 0 1 .379-.374.7.7 0 0 1 .267-.05h7.39a.698.698 0 0 1 .548 1.219.7.7 0 0 1-.548.171h-7.39a.7.7 0 0 1-.7-.7m5.6-22.54a.808.808 0 0 1 .962-.806.81.81 0 0 1 .642.634.811.811 0 1 1-1.604.172m-2.41 0a.811.811 0 0 1 1.383-.583.809.809 0 0 1-.583 1.383.8.8 0 0 1-.82-.8zm-2.42 0a.808.808 0 0 1 .962-.806.81.81 0 0 1 .642.634.811.811 0 1 1-1.604.172m-2.41 0a.811.811 0 0 1 1.383-.583.809.809 0 0 1-.583 1.383.8.8 0 0 1-.8-.8m-2.42 0a.811.811 0 0 1 1.383-.583.809.809 0 0 1-.583 1.383.8.8 0 0 1-.8-.8m-2.42 0a.808.808 0 0 1 .962-.806.81.81 0 0 1 .642.634.811.811 0 1 1-1.604.172m12.08 6.44a.81.81 0 1 1 1.62-.02.81.81 0 0 1-1.62.02m-2.41 0a.81.81 0 0 1 .495-.756.81.81 0 1 1 .305 1.556.8.8 0 0 1-.579-.227.8.8 0 0 1-.241-.573zm-2.42 0a.81.81 0 1 1 1.62-.02.81.81 0 0 1-1.62.02m-2.41 0a.81.81 0 0 1 .495-.756.81.81 0 1 1 .305 1.556.803.803 0 0 1-.8-.8m-2.42 0a.81.81 0 0 1 .495-.756.81.81 0 1 1 .305 1.556.803.803 0 0 1-.8-.8m-2.42 0a.81.81 0 1 1 1.62-.02.81.81 0 0 1-1.62.02m3.83 9.26a.81.81 0 0 1 .495-.756.81.81 0 1 1 .305 1.556.803.803 0 0 1-.8-.8m-2.42 0a.81.81 0 1 1 1.62-.02.81.81 0 0 1-1.62.02m-2.41 0a.81.81 0 0 1 .495-.756.81.81 0 1 1 .305 1.556.803.803 0 0 1-.8-.8m-2.42 0a.81.81 0 1 1 1.62-.02.81.81 0 0 1-1.62.02m-2.41 0a.81.81 0 0 1 .495-.756.81.81 0 1 1 .305 1.556.803.803 0 0 1-.8-.8m-2.42 0a.81.81 0 1 1 1.62-.02.81.81 0 0 1-1.62.02m12.08 6.65a.811.811 0 0 1 1.606-.152.81.81 0 1 1-1.606.152m-2.42 0a.81.81 0 1 1 1.62.002.81.81 0 0 1-1.62-.002m-2.41 0a.811.811 0 0 1 1.606-.152.81.81 0 1 1-1.606.152m-2.42 0a.81.81 0 1 1 1.62.002.81.81 0 0 1-1.62-.002m-2.41 0a.811.811 0 0 1 1.606-.152.81.81 0 1 1-1.606.152m-2.42 0a.81.81 0 1 1 1.62.002.81.81 0 0 1-1.62-.002M271.66 46.17h2.82a.7.7 0 0 0 .617-.695.7.7 0 0 0-.617-.695h-2.82a.699.699 0 0 0-.722.982.7.7 0 0 0 .43.381c.094.03.194.039.292.027m-.7 2.53a.7.7 0 0 1 .7-.7h2.82a.7.7 0 0 1 .617.695.7.7 0 0 1-.617.695h-2.82a.69.69 0 0 1-.66-.69zm0 3.22a.7.7 0 0 1 .7-.7h2.82a.7.7 0 0 1 .617.695.7.7 0 0 1-.617.695h-2.82a.69.69 0 0 1-.66-.69zm0 3.22a.7.7 0 0 1 .7-.7h2.82a.7.7 0 0 1 .617.695.7.7 0 0 1-.617.695h-2.82a.69.69 0 0 1-.66-.69zm0 3.22a.7.7 0 0 1 .7-.7h2.82a.7.7 0 0 1 .617.695.7.7 0 0 1-.617.695h-2.82a.69.69 0 0 1-.66-.69zm0 3.22a.68.68 0 0 1 .206-.491.69.69 0 0 1 .494-.199h2.82a.69.69 0 0 1 .69.69.7.7 0 0 1-.69.7h-2.82a.697.697 0 0 1-.66-.7zm0 3.22a.68.68 0 0 1 .206-.492.69.69 0 0 1 .494-.198h2.82a.7.7 0 0 1 .617.695.7.7 0 0 1-.617.695h-2.82a.697.697 0 0 1-.66-.7zM271 68a.68.68 0 0 1 .206-.492.69.69 0 0 1 .494-.198h2.82a.7.7 0 0 1 .617.695.7.7 0 0 1-.617.695h-2.82a.7.7 0 0 1-.7-.7m-10.54-22.54a.7.7 0 0 1 .199-.494.68.68 0 0 1 .491-.206h7.4a.699.699 0 0 1 .722.982.7.7 0 0 1-.43.381.7.7 0 0 1-.292.027h-7.4a.69.69 0 0 1-.73-.67zm0 3.22a.7.7 0 0 1 .199-.494.68.68 0 0 1 .491-.206h7.4a.699.699 0 0 1 .722.982.7.7 0 0 1-.43.381.7.7 0 0 1-.292.027h-7.4a.69.69 0 0 1-.73-.67zm0 3.22a.7.7 0 0 1 .199-.494.68.68 0 0 1 .491-.206h7.4a.699.699 0 0 1 .722.982.7.7 0 0 1-.43.381.7.7 0 0 1-.292.027h-7.4a.69.69 0 0 1-.73-.67zm0 3.22a.7.7 0 0 1 .199-.494.68.68 0 0 1 .491-.206h7.4a.699.699 0 0 1 .722.982.7.7 0 0 1-.43.381.7.7 0 0 1-.292.027h-7.4a.69.69 0 0 1-.73-.67zm0 3.22a.7.7 0 0 1 .199-.494.68.68 0 0 1 .491-.206h7.4a.699.699 0 0 1 .722.982.7.7 0 0 1-.43.381.7.7 0 0 1-.292.027h-7.4a.69.69 0 0 1-.73-.67zm-8.86 3.22a.68.68 0 0 1 .206-.492.69.69 0 0 1 .494-.198h7.39a.69.69 0 0 1 .647.424.7.7 0 0 1-.152.761.7.7 0 0 1-.495.205h-7.39a.7.7 0 0 1-.677-.409.7.7 0 0 1-.063-.271zm0 3.22a.68.68 0 0 1 .206-.492.69.69 0 0 1 .494-.198h7.39a.699.699 0 0 1 .722.982.7.7 0 0 1-.43.381.7.7 0 0 1-.292.027h-7.39a.7.7 0 0 1-.677-.409.7.7 0 0 1-.063-.271zm0 3.22a.68.68 0 0 1 .206-.492.69.69 0 0 1 .494-.198h7.39a.699.699 0 0 1 .722.982.7.7 0 0 1-.43.381.7.7 0 0 1-.292.027h-7.39a.7.7 0 0 1-.74-.7zm5.6-22.54a.809.809 0 0 1 1.379-.586.81.81 0 0 1 .18.884.81.81 0 0 1-.749.502.81.81 0 0 1-.85-.78zm-2.41 0a.811.811 0 0 1 1.605-.166.81.81 0 0 1-.351.834.8.8 0 0 1-.454.132.8.8 0 0 1-.84-.78zm-2.42 0a.809.809 0 0 1 1.379-.586.81.81 0 0 1 .18.884.81.81 0 0 1-.749.502.81.81 0 0 1-.85-.78zm-2.41 0a.811.811 0 0 1 1.605-.166.81.81 0 0 1-.351.834.8.8 0 0 1-.454.132.8.8 0 0 1-.84-.78zm-2.42 0a.809.809 0 0 1 1.379-.586.81.81 0 0 1 .18.884.81.81 0 0 1-.749.502.81.81 0 0 1-.85-.78zm-2.42 0a.809.809 0 0 1 1.379-.586.81.81 0 0 1 .18.884.81.81 0 0 1-.749.502.81.81 0 0 1-.85-.78zm12.08 6.44a.809.809 0 0 1 1.379-.586.81.81 0 0 1 .18.884.81.81 0 0 1-.749.502.81.81 0 0 1-.85-.78zm-2.41 0a.811.811 0 0 1 1.605-.166.81.81 0 0 1-.351.834.8.8 0 0 1-.454.132.8.8 0 0 1-.84-.78zm-2.42 0a.809.809 0 0 1 1.379-.586.81.81 0 0 1 .18.884.81.81 0 0 1-.749.502.81.81 0 0 1-.85-.78zm-2.41 0a.811.811 0 0 1 1.605-.166.81.81 0 0 1-.351.834.8.8 0 0 1-.454.132.8.8 0 0 1-.84-.78zm-2.42 0a.809.809 0 0 1 1.379-.586.81.81 0 0 1 .18.884.81.81 0 0 1-.749.502.81.81 0 0 1-.85-.78zm-2.42 0a.809.809 0 0 1 1.379-.586.81.81 0 0 1 .18.884.81.81 0 0 1-.749.502.81.81 0 0 1-.85-.78zm3.83 9.26a.809.809 0 0 1 1.379-.586.81.81 0 0 1 .18.884.81.81 0 0 1-.749.502.81.81 0 0 1-.85-.78zm-2.42 0a.809.809 0 0 1 1.379-.586.81.81 0 0 1 .18.884.81.81 0 0 1-.749.502.81.81 0 0 1-.85-.78zm-2.41 0a.811.811 0 0 1 1.605-.165.81.81 0 0 1-.351.833.8.8 0 0 1-.454.132.8.8 0 0 1-.84-.78zm-2.42 0a.809.809 0 0 1 1.379-.586.81.81 0 0 1 .18.884.81.81 0 0 1-.749.502.81.81 0 0 1-.85-.78zm-2.41 0a.811.811 0 0 1 1.605-.165.81.81 0 0 1-.351.833.8.8 0 0 1-.454.132.8.8 0 0 1-.84-.78zm-2.42 0a.809.809 0 0 1 1.379-.586.81.81 0 0 1 .18.884.81.81 0 0 1-.749.502.81.81 0 0 1-.85-.78zm12.08 6.64a.81.81 0 1 1 .81.81.8.8 0 0 1-.85-.79zm-2.42 0a.81.81 0 1 1 .81.81.8.8 0 0 1-.85-.79zm-2.41 0a.81.81 0 0 1 .502-.75.812.812 0 0 1 1.104.598.81.81 0 0 1-.806.962.8.8 0 0 1-.84-.79zm-2.42 0a.81.81 0 1 1 .81.81.8.8 0 0 1-.85-.79zm-2.41 0a.81.81 0 0 1 .502-.75.812.812 0 0 1 1.104.598.81.81 0 0 1-.806.962.8.8 0 0 1-.84-.79zm-2.42 0a.81.81 0 1 1 .81.81.8.8 0 0 1-.85-.79zM271.66 72.57h2.82a.7.7 0 0 0 .617-.695.7.7 0 0 0-.617-.695h-2.82a.7.7 0 0 0-.722.408.7.7 0 0 0 0 .574.7.7 0 0 0 .43.381c.094.03.194.039.292.027m-.7 2.52q0-.138.054-.266a.69.69 0 0 1 .646-.424h2.82a.7.7 0 0 1 .617.695.7.7 0 0 1-.617.695h-2.82a.697.697 0 0 1-.66-.7zm0 3.22q0-.138.054-.266a.69.69 0 0 1 .646-.424h2.82a.7.7 0 0 1 .617.695.7.7 0 0 1-.617.695h-2.82a.697.697 0 0 1-.66-.7zm0 3.22q0-.138.054-.266a.69.69 0 0 1 .646-.424h2.82a.7.7 0 0 1 .617.695.7.7 0 0 1-.617.695h-2.82a.697.697 0 0 1-.66-.7zm0 3.22q0-.138.054-.266a.69.69 0 0 1 .646-.424h2.82a.7.7 0 0 1 .617.695.7.7 0 0 1-.617.695h-2.82a.697.697 0 0 1-.66-.7zM271 88a.7.7 0 0 1 .7-.7h2.82a.7.7 0 0 1 .617.695.7.7 0 0 1-.617.695h-2.82a.69.69 0 0 1-.646-.424A.7.7 0 0 1 271 88m0 3.22a.7.7 0 0 1 .7-.7h2.82a.7.7 0 0 1 .617.695.7.7 0 0 1-.617.695h-2.82a.69.69 0 0 1-.7-.71zm0 3.22a.7.7 0 0 1 .7-.7h2.82a.7.7 0 0 1 .617.695.7.7 0 0 1-.617.695h-2.82a.69.69 0 0 1-.7-.71zm-10.54-22.55a.69.69 0 0 1 .69-.69h7.4a.7.7 0 0 1 .722.408.69.69 0 0 1-.174.81.7.7 0 0 1-.548.172h-7.4a.7.7 0 0 1-.525-.198.68.68 0 0 1-.205-.522zm0 3.22a.69.69 0 0 1 .69-.69h7.4a.7.7 0 0 1 .722.408.69.69 0 0 1-.174.81.7.7 0 0 1-.548.172h-7.4a.7.7 0 0 1-.525-.198.68.68 0 0 1-.205-.522zm0 3.22a.69.69 0 0 1 .69-.69h7.4a.7.7 0 0 1 .722.408.69.69 0 0 1-.174.81.7.7 0 0 1-.548.172h-7.4a.7.7 0 0 1-.525-.198.68.68 0 0 1-.205-.522zm0 3.22a.69.69 0 0 1 .69-.69h7.4a.7.7 0 0 1 .722.408.69.69 0 0 1-.174.81.7.7 0 0 1-.548.172h-7.4a.7.7 0 0 1-.525-.198.68.68 0 0 1-.205-.522zm0 3.22a.69.69 0 0 1 .69-.69h7.4a.7.7 0 0 1 .722.408.69.69 0 0 1-.174.81.7.7 0 0 1-.548.172h-7.4a.7.7 0 0 1-.525-.198.68.68 0 0 1-.205-.522zm-8.9 3.23a.7.7 0 0 1 .7-.7h7.39a.7.7 0 0 1 .722.408.69.69 0 0 1-.174.81.7.7 0 0 1-.548.172h-7.39a.69.69 0 0 1-.646-.424.7.7 0 0 1-.054-.266m0 3.22a.7.7 0 0 1 .7-.7h7.39a.7.7 0 0 1 .722.408.69.69 0 0 1-.174.81.7.7 0 0 1-.548.172h-7.39a.69.69 0 0 1-.7-.71zm0 3.22a.7.7 0 0 1 .7-.7h7.39a.7.7 0 0 1 .722.408.69.69 0 0 1-.174.81.7.7 0 0 1-.548.172h-7.39a.69.69 0 0 1-.7-.71zm5.6-22.55a.81.81 0 1 1 .494.75.8.8 0 0 1-.494-.77zm-2.41 0a.81.81 0 0 1 .502-.75.812.812 0 0 1 1.104.598.81.81 0 0 1-.806.962.8.8 0 0 1-.748-.515.8.8 0 0 1-.052-.315zm-2.42 0a.81.81 0 1 1 .494.75.8.8 0 0 1-.494-.77zm-2.41 0a.81.81 0 0 1 .502-.75.812.812 0 0 1 1.104.598.81.81 0 0 1-.806.962.8.8 0 0 1-.748-.515.8.8 0 0 1-.052-.315zm-2.42 0a.81.81 0 1 1 .494.75.8.8 0 0 1-.494-.77zm-2.42 0a.81.81 0 1 1 .056.296.8.8 0 0 1-.056-.316zm12.08 6.44a.81.81 0 1 1 .494.75.8.8 0 0 1-.494-.77zm-2.41 0a.81.81 0 0 1 .502-.75.812.812 0 0 1 1.104.598.81.81 0 0 1-.806.962.8.8 0 0 1-.748-.515.8.8 0 0 1-.052-.315zm-2.42 0a.81.81 0 1 1 .494.75.8.8 0 0 1-.494-.77zm-2.41 0a.81.81 0 0 1 .502-.75.812.812 0 0 1 1.104.598.81.81 0 0 1-.806.962.8.8 0 0 1-.748-.515.8.8 0 0 1-.052-.315zm-2.42 0a.81.81 0 1 1 .494.75.8.8 0 0 1-.494-.77zm-2.42 0a.81.81 0 1 1 .056.296.8.8 0 0 1-.056-.316zm3.83 9.26a.81.81 0 1 1 .494.75.8.8 0 0 1-.494-.77zm-2.42 0a.81.81 0 1 1 .494.75.8.8 0 0 1-.494-.77zm-2.41 0a.81.81 0 0 1 .502-.75.813.813 0 0 1 1.104.598.81.81 0 0 1-.806.962.8.8 0 0 1-.748-.515.8.8 0 0 1-.052-.315zm-2.42 0a.81.81 0 1 1 .494.75.8.8 0 0 1-.494-.77zm-2.41 0a.81.81 0 0 1 .502-.75.813.813 0 0 1 1.104.598.81.81 0 0 1-.806.962.8.8 0 0 1-.748-.515.8.8 0 0 1-.052-.315zm-2.42 0a.81.81 0 1 1 .494.75.8.8 0 0 1-.494-.77zm12.08 6.65a.809.809 0 0 1 1.379-.586.81.81 0 0 1 .18.884.812.812 0 0 1-1.325.261.8.8 0 0 1-.234-.579zm-2.42 0a.809.809 0 0 1 1.379-.586.81.81 0 0 1 .18.884.812.812 0 0 1-1.325.261.8.8 0 0 1-.234-.579zm-2.41 0a.812.812 0 0 1 .966-.805.81.81 0 1 1-.477 1.542.8.8 0 0 1-.434-.445.8.8 0 0 1-.055-.312zm-2.42 0a.809.809 0 0 1 1.379-.586.81.81 0 0 1 .18.884.812.812 0 0 1-1.325.261.8.8 0 0 1-.234-.579zm-2.41 0a.812.812 0 0 1 .966-.805.81.81 0 1 1-.477 1.542.8.8 0 0 1-.434-.445.8.8 0 0 1-.055-.312zm-2.42 0a.809.809 0 0 1 1.379-.586.81.81 0 0 1 .18.884.812.812 0 0 1-1.325.261.8.8 0 0 1-.234-.579zM115.6 127.68h2.82a.696.696 0 0 0 .616-.695.697.697 0 0 0-.616-.695h-2.82a.698.698 0 0 0-.548 1.219.7.7 0 0 0 .548.171m-.7 2.52a.7.7 0 0 1 .206-.491.7.7 0 0 1 .494-.199h2.82a.697.697 0 0 1 .44 1.16.7.7 0 0 1-.44.23h-2.82a.7.7 0 0 1-.7-.7m0 3.23a.7.7 0 0 1 .7-.7h2.82a.697.697 0 0 1 .44 1.16.7.7 0 0 1-.44.23h-2.82a.68.68 0 0 1-.494-.198.69.69 0 0 1-.206-.492m0 3.22a.7.7 0 0 1 .7-.7h2.82a.697.697 0 0 1 .44 1.16.7.7 0 0 1-.44.23h-2.82a.68.68 0 0 1-.494-.198.69.69 0 0 1-.206-.492m0 3.22a.7.7 0 0 1 .7-.7h2.82a.697.697 0 0 1 .44 1.16.7.7 0 0 1-.44.23h-2.82a.68.68 0 0 1-.494-.198.69.69 0 0 1-.206-.492m0 3.22a.7.7 0 0 1 .7-.7h2.82a.697.697 0 0 1 .44 1.16.7.7 0 0 1-.44.23h-2.82a.68.68 0 0 1-.494-.198.69.69 0 0 1-.206-.492m0 3.22a.7.7 0 0 1 .7-.7h2.82a.697.697 0 0 1 .44 1.16.7.7 0 0 1-.44.23h-2.82a.68.68 0 0 1-.494-.198.69.69 0 0 1-.206-.492m0 3.22a.7.7 0 0 1 .7-.7h2.82a.699.699 0 0 1 .488 1.188.7.7 0 0 1-.488.202h-2.82a.68.68 0 0 1-.494-.198.69.69 0 0 1-.206-.492M104.36 127a.693.693 0 0 1 .69-.69h7.4a.698.698 0 0 1 .548 1.219.7.7 0 0 1-.548.171H105a.687.687 0 0 1-.64-.7m0 3.22a.693.693 0 0 1 .69-.69h7.4a.698.698 0 0 1 .548 1.219.7.7 0 0 1-.548.171H105a.69.69 0 0 1-.64-.72zm0 3.23a.7.7 0 0 1 .199-.494.68.68 0 0 1 .491-.206h7.4a.698.698 0 0 1 .548 1.219.7.7 0 0 1-.548.171H105a.69.69 0 0 1-.64-.71zm0 3.22a.7.7 0 0 1 .199-.494.68.68 0 0 1 .491-.206h7.4a.698.698 0 0 1 .548 1.219.7.7 0 0 1-.548.171H105a.69.69 0 0 1-.64-.71zm0 3.22a.7.7 0 0 1 .199-.494.68.68 0 0 1 .491-.206h7.4a.698.698 0 0 1 .548 1.219.7.7 0 0 1-.548.171H105a.69.69 0 0 1-.64-.71zm-8.86 3.22a.7.7 0 0 1 .7-.7h7.39a.698.698 0 0 1 .548 1.219.7.7 0 0 1-.548.171H96.2a.7.7 0 0 1-.502-.205.7.7 0 0 1-.198-.505zm0 3.22a.7.7 0 0 1 .7-.7h7.39a.698.698 0 0 1 .548 1.219.7.7 0 0 1-.548.171H96.2a.7.7 0 0 1-.502-.205.7.7 0 0 1-.198-.505zm0 3.22a.7.7 0 0 1 .7-.7h7.39a.7.7 0 0 1 .647.966.695.695 0 0 1-.647.424H96.2a.7.7 0 0 1-.502-.205.7.7 0 0 1-.198-.505zm5.6-22.55a.81.81 0 1 1 .498.751.8.8 0 0 1-.264-.175.82.82 0 0 1-.234-.576m-2.41 0a.81.81 0 0 1 .502-.749.81.81 0 0 1 1.104.597.81.81 0 0 1-.806.962.8.8 0 0 1-.8-.81m-2.42 0a.81.81 0 1 1 .81.81.8.8 0 0 1-.576-.234.82.82 0 0 1-.234-.576m-2.41 0a.81.81 0 0 1 .502-.749.811.811 0 0 1 1.053 1.066.809.809 0 0 1-.755.493.8.8 0 0 1-.742-.501.8.8 0 0 1-.058-.309m-2.42 0a.81.81 0 1 1 .81.81.8.8 0 0 1-.576-.234.81.81 0 0 1-.234-.576m-2.42 0a.81.81 0 1 1 .81.81.808.808 0 0 1-.83-.81zm12.08 6.45a.81.81 0 1 1 .059.293.8.8 0 0 1-.059-.313zm-2.41 0a.812.812 0 0 1 1.383-.583.81.81 0 0 1-.13 1.251.8.8 0 0 1-.453.132.8.8 0 0 1-.573-.241.8.8 0 0 1-.227-.579zm-2.42 0a.812.812 0 0 1 .962-.806.82.82 0 0 1 .642.634.813.813 0 0 1-.794.972.8.8 0 0 1-.576-.241.8.8 0 0 1-.234-.579zm-2.41 0a.811.811 0 1 1 .49.737.8.8 0 0 1-.49-.757zm-2.42 0a.811.811 0 1 1 .059.293.8.8 0 0 1-.059-.313zm-2.42 0a.812.812 0 0 1 .962-.806.82.82 0 0 1 .642.634.813.813 0 0 1-.794.972.81.81 0 0 1-.77-.502.8.8 0 0 1-.06-.318zm3.83 9.26a.812.812 0 0 1 .962-.806.82.82 0 0 1 .642.634.812.812 0 0 1-.794.972.8.8 0 0 1-.576-.241.8.8 0 0 1-.234-.579zm-2.42 0a.812.812 0 0 1 .962-.806.82.82 0 0 1 .642.634.813.813 0 0 1-.794.972.8.8 0 0 1-.576-.241.8.8 0 0 1-.234-.579zm-2.41 0a.811.811 0 1 1 .8.8.8.8 0 0 1-.82-.82zm-2.42 0a.812.812 0 0 1 .962-.806.82.82 0 0 1 .642.634.812.812 0 0 1-.794.972.8.8 0 0 1-.576-.241.8.8 0 0 1-.234-.579zm-2.41 0a.812.812 0 0 1 .966-.805.81.81 0 0 1-.166 1.605.8.8 0 0 1-.573-.241.8.8 0 0 1-.227-.579zm-2.42 0a.812.812 0 0 1 .962-.806.82.82 0 0 1 .642.634.813.813 0 0 1-.794.972.8.8 0 0 1-.576-.241.8.8 0 0 1-.234-.579zm12.08 6.64a.812.812 0 0 1 .962-.806.82.82 0 0 1 .642.634.812.812 0 0 1-.794.972.8.8 0 0 1-.576-.241.8.8 0 0 1-.234-.579zm-2.42 0a.812.812 0 0 1 .962-.806.82.82 0 0 1 .642.634.813.813 0 0 1-.794.972.8.8 0 0 1-.576-.241.8.8 0 0 1-.234-.579zm-2.41 0a.811.811 0 1 1 .8.8.8.8 0 0 1-.82-.82zm-2.42 0a.812.812 0 0 1 .962-.806.82.82 0 0 1 .642.634.812.812 0 0 1-.794.972.8.8 0 0 1-.576-.241.8.8 0 0 1-.234-.579zm-2.41 0a.812.812 0 0 1 .966-.805.81.81 0 0 1-.166 1.605.8.8 0 0 1-.573-.241.8.8 0 0 1-.227-.579zm-2.42 0a.812.812 0 0 1 .962-.806.82.82 0 0 1 .642.634.813.813 0 0 1-.794.972.8.8 0 0 1-.576-.241.8.8 0 0 1-.234-.579zM115.6 153.45h2.82a.696.696 0 0 0 .616-.695.697.697 0 0 0-.616-.695h-2.82a.698.698 0 0 0-.548 1.219.7.7 0 0 0 .548.171m-.7 2.53a.7.7 0 0 1 .7-.7h2.82a.697.697 0 0 1 .44 1.16.7.7 0 0 1-.44.23h-2.82a.69.69 0 0 1-.7-.67zm0 3.22a.7.7 0 0 1 .7-.7h2.82a.697.697 0 0 1 .44 1.16.7.7 0 0 1-.44.23h-2.82a.68.68 0 0 1-.494-.198.69.69 0 0 1-.206-.492m0 3.22a.7.7 0 0 1 .7-.7h2.82a.699.699 0 0 1 .488 1.188.7.7 0 0 1-.488.202h-2.82a.68.68 0 0 1-.494-.198.69.69 0 0 1-.206-.492m0 3.22a.7.7 0 0 1 .206-.491.7.7 0 0 1 .494-.199h2.82a.691.691 0 0 1 .489 1.182.7.7 0 0 1-.489.208h-2.82a.7.7 0 0 1-.7-.7m0 3.22a.7.7 0 0 1 .206-.491.7.7 0 0 1 .494-.199h2.82a.697.697 0 0 1 .44 1.16.7.7 0 0 1-.44.23h-2.82a.7.7 0 0 1-.7-.7m0 3.22a.7.7 0 0 1 .206-.491.7.7 0 0 1 .494-.199h2.82a.697.697 0 0 1 .44 1.16.7.7 0 0 1-.44.23h-2.82a.7.7 0 0 1-.7-.7m0 3.22a.7.7 0 0 1 .206-.491.7.7 0 0 1 .494-.199h2.82a.697.697 0 0 1 .44 1.16.7.7 0 0 1-.44.23h-2.82a.7.7 0 0 1-.7-.7m-10.54-22.54a.7.7 0 0 1 .199-.494.68.68 0 0 1 .491-.206h7.4a.698.698 0 0 1 .548 1.219.7.7 0 0 1-.548.171H105a.693.693 0 0 1-.64-.69m0 3.22a.7.7 0 0 1 .199-.494.68.68 0 0 1 .491-.206h7.4a.698.698 0 0 1 .548 1.219.7.7 0 0 1-.548.171H105a.686.686 0 0 1-.64-.67zm0 3.22a.7.7 0 0 1 .199-.494.68.68 0 0 1 .491-.206h7.4a.698.698 0 0 1 .548 1.219.7.7 0 0 1-.548.171H105a.693.693 0 0 1-.64-.69m0 3.22a.7.7 0 0 1 .69-.7h7.4a.7.7 0 0 1 .647.966.695.695 0 0 1-.647.424H105a.693.693 0 0 1-.64-.69m0 3.22a.7.7 0 0 1 .2-.44.7.7 0 0 1 .44-.2h7.4a.7.7 0 0 1 .494.199.68.68 0 0 1 .206.491.7.7 0 0 1-.7.7H105a.7.7 0 0 1-.64-.75m-8.86 3.22a.69.69 0 0 1 .7-.69h7.39a.698.698 0 0 1 .548 1.219.7.7 0 0 1-.548.171H96.2a.7.7 0 0 1-.7-.7m0 3.22a.69.69 0 0 1 .7-.69h7.39a.698.698 0 0 1 .548 1.219.7.7 0 0 1-.548.171H96.2a.7.7 0 0 1-.7-.7m0 3.22a.69.69 0 0 1 .7-.69h7.39a.698.698 0 0 1 .548 1.219.7.7 0 0 1-.548.171H96.2a.7.7 0 0 1-.7-.7m5.6-22.54a.81.81 0 1 1 1.62-.02.81.81 0 0 1-1.62.02m-2.41 0a.812.812 0 0 1 1.383-.583.81.81 0 0 1-.13 1.251.8.8 0 0 1-.453.132.8.8 0 0 1-.8-.8m-2.42 0a.812.812 0 0 1 .962-.806.82.82 0 0 1 .642.634.813.813 0 0 1-.794.972.81.81 0 0 1-.81-.8m-2.41 0a.811.811 0 1 1 .8.8.8.8 0 0 1-.8-.8m-2.42 0a.811.811 0 1 1 1.622-.02.811.811 0 0 1-1.622.02m-2.42 0a.812.812 0 0 1 .962-.806.82.82 0 0 1 .642.634.813.813 0 0 1-.794.972.8.8 0 0 1-.582-.226.82.82 0 0 1-.248-.574zm12.08 6.44a.81.81 0 1 1 1.62-.02.81.81 0 0 1-1.62.02m-2.41 0a.812.812 0 0 1 1.383-.583.81.81 0 0 1-.13 1.251.8.8 0 0 1-.453.132.8.8 0 0 1-.8-.8m-2.42 0a.812.812 0 0 1 .962-.806.82.82 0 0 1 .642.634.813.813 0 0 1-.794.972.81.81 0 0 1-.81-.8m-2.41 0a.811.811 0 1 1 .8.8.8.8 0 0 1-.8-.8m-2.42 0a.811.811 0 1 1 1.622-.02.811.811 0 0 1-1.622.02m-2.42 0a.812.812 0 0 1 .962-.806.82.82 0 0 1 .642.634.813.813 0 0 1-.794.972.8.8 0 0 1-.582-.226.82.82 0 0 1-.248-.574zm3.83 9.26a.812.812 0 0 1 .962-.806.82.82 0 0 1 .642.634.812.812 0 0 1-.794.972.81.81 0 0 1-.81-.8m-2.42 0a.812.812 0 0 1 .962-.806.82.82 0 0 1 .642.634.813.813 0 0 1-.794.972.81.81 0 0 1-.81-.8m-2.41 0a.811.811 0 1 1 .8.8.8.8 0 0 1-.579-.227.8.8 0 0 1-.241-.573zm-2.42 0a.812.812 0 0 1 .962-.806.82.82 0 0 1 .642.634.812.812 0 0 1-.794.972.81.81 0 0 1-.81-.8m-2.41 0a.812.812 0 0 1 .966-.805.81.81 0 0 1-.166 1.605.8.8 0 0 1-.8-.8m-2.42 0a.812.812 0 0 1 .962-.806.82.82 0 0 1 .642.634.813.813 0 0 1-.794.972.81.81 0 0 1-.81-.8m12.08 6.64a.81.81 0 1 1 .81.81.8.8 0 0 1-.576-.234.8.8 0 0 1-.234-.576m-2.42 0a.81.81 0 1 1 .81.81.8.8 0 0 1-.576-.234.8.8 0 0 1-.234-.576m-2.41 0a.81.81 0 0 1 .502-.749.811.811 0 0 1 1.053 1.066.808.808 0 0 1-.756.493.79.79 0 0 1-.581-.231.79.79 0 0 1-.238-.579zm-2.42 0a.81.81 0 1 1 .81.81.8.8 0 0 1-.576-.234.8.8 0 0 1-.234-.576m-2.41 0a.81.81 0 0 1 .502-.749.811.811 0 0 1 1.054 1.066.809.809 0 0 1-.756.493.8.8 0 0 1-.8-.81m-2.42 0a.81.81 0 1 1 .81.81.8.8 0 0 1-.576-.234.8.8 0 0 1-.234-.576M115.6 179.85h2.82a.697.697 0 0 0 .44-1.16.7.7 0 0 0-.44-.23h-2.82a.698.698 0 0 0-.548 1.219.7.7 0 0 0 .548.171m-.7 2.52a.7.7 0 0 1 .206-.492.69.69 0 0 1 .494-.198h2.82a.696.696 0 0 1 .616.695.697.697 0 0 1-.616.695h-2.82a.7.7 0 0 1-.7-.7m0 3.22a.7.7 0 0 1 .206-.492.69.69 0 0 1 .494-.198h2.82a.696.696 0 0 1 .616.695.697.697 0 0 1-.616.695h-2.82a.7.7 0 0 1-.7-.7m0 3.23a.7.7 0 0 1 .7-.7h2.82a.696.696 0 0 1 .616.695.697.697 0 0 1-.616.695h-2.82a.7.7 0 0 1-.494-.199.7.7 0 0 1-.206-.491m0 3.22a.7.7 0 0 1 .7-.7h2.82a.696.696 0 0 1 .616.695.697.697 0 0 1-.616.695h-2.82a.69.69 0 0 1-.659-.451.7.7 0 0 1-.041-.279zm0 3.22a.7.7 0 0 1 .7-.7h2.82a.696.696 0 0 1 .616.695.697.697 0 0 1-.616.695h-2.82a.7.7 0 0 1-.494-.199.7.7 0 0 1-.206-.491m0 3.22a.7.7 0 0 1 .7-.7h2.82a.696.696 0 0 1 .616.695.697.697 0 0 1-.616.695h-2.82a.7.7 0 0 1-.494-.199.7.7 0 0 1-.206-.491m0 3.22a.7.7 0 0 1 .7-.7h2.82a.696.696 0 0 1 .616.695.697.697 0 0 1-.616.695h-2.82a.7.7 0 0 1-.494-.199.7.7 0 0 1-.206-.491m-10.54-22.55a.69.69 0 0 1 .69-.69h7.4a.698.698 0 0 1 .548 1.219.7.7 0 0 1-.548.171H105a.687.687 0 0 1-.64-.7m0 3.22a.69.69 0 0 1 .69-.69h7.4a.698.698 0 0 1 .548 1.219.7.7 0 0 1-.548.171H105a.687.687 0 0 1-.64-.7m0 3.22a.69.69 0 0 1 .69-.69h7.4a.698.698 0 0 1 .548 1.219.7.7 0 0 1-.548.171H105a.687.687 0 0 1-.64-.7m0 3.23a.7.7 0 0 1 .199-.494.68.68 0 0 1 .491-.206h7.4a.698.698 0 0 1 .548 1.219.7.7 0 0 1-.548.171H105a.693.693 0 0 1-.64-.69m0 3.22a.7.7 0 0 1 .199-.494.68.68 0 0 1 .491-.206h7.4a.698.698 0 0 1 .548 1.219.7.7 0 0 1-.548.171H105a.691.691 0 0 1-.64-.73zm-8.86 3.22a.7.7 0 0 1 .7-.7h7.39a.698.698 0 0 1 .548 1.219.7.7 0 0 1-.548.171H96.2a.7.7 0 0 1-.494-.199.68.68 0 0 1-.206-.491m0 3.22a.7.7 0 0 1 .7-.7h7.39a.698.698 0 0 1 .548 1.219.7.7 0 0 1-.548.171H96.2a.7.7 0 0 1-.494-.199.68.68 0 0 1-.206-.491m0 3.22a.7.7 0 0 1 .7-.7h7.39a.698.698 0 0 1 .548 1.219.7.7 0 0 1-.548.171H96.2a.7.7 0 0 1-.494-.199.68.68 0 0 1-.206-.491m5.6-22.55a.81.81 0 1 1 .498.751.8.8 0 0 1-.264-.175.82.82 0 0 1-.234-.576m-2.41 0a.81.81 0 0 1 .502-.749.81.81 0 0 1 1.104.597.81.81 0 0 1-.806.962.8.8 0 0 1-.8-.81m-2.42 0a.81.81 0 1 1 .81.81.8.8 0 0 1-.576-.234.82.82 0 0 1-.234-.576m-2.41 0a.81.81 0 0 1 .502-.749.811.811 0 0 1 1.053 1.066.809.809 0 0 1-.755.493.8.8 0 0 1-.742-.501.8.8 0 0 1-.058-.309m-2.42 0a.81.81 0 1 1 .81.81.8.8 0 0 1-.576-.234.81.81 0 0 1-.234-.576m-2.42 0a.81.81 0 1 1 .81.81.808.808 0 0 1-.83-.81zm12.08 6.44a.81.81 0 1 1 .498.751.8.8 0 0 1-.264-.175.82.82 0 0 1-.234-.576m-2.41 0a.81.81 0 0 1 .502-.749.81.81 0 0 1 1.104.597.81.81 0 0 1-.806.962.8.8 0 0 1-.8-.81m-2.42 0a.81.81 0 1 1 .81.81.8.8 0 0 1-.576-.234.82.82 0 0 1-.234-.576m-2.41 0a.81.81 0 0 1 .502-.749.811.811 0 0 1 1.053 1.066.809.809 0 0 1-.755.493.8.8 0 0 1-.742-.501.8.8 0 0 1-.058-.309m-2.42 0a.81.81 0 1 1 .81.81.8.8 0 0 1-.576-.234.81.81 0 0 1-.234-.576m-2.42 0a.81.81 0 1 1 .81.81.808.808 0 0 1-.83-.81zm3.83 9.26a.81.81 0 1 1 .81.81.8.8 0 0 1-.576-.234.81.81 0 0 1-.234-.576m-2.42 0a.81.81 0 1 1 .81.81.8.8 0 0 1-.576-.234.81.81 0 0 1-.234-.576m-2.41 0a.81.81 0 0 1 .502-.749.811.811 0 0 1 1.053 1.066.808.808 0 0 1-.756.493.79.79 0 0 1-.581-.231.8.8 0 0 1-.238-.579zm-2.42 0a.81.81 0 1 1 .81.81.8.8 0 0 1-.576-.234.81.81 0 0 1-.234-.576m-2.41 0a.81.81 0 0 1 .502-.749.811.811 0 0 1 1.054 1.066.809.809 0 0 1-.756.493.8.8 0 0 1-.8-.81m-2.42 0a.81.81 0 1 1 .81.81.8.8 0 0 1-.576-.234.82.82 0 0 1-.234-.576m12.08 6.65a.812.812 0 0 1 .962-.806.81.81 0 1 1-.962.806m-2.42 0a.812.812 0 0 1 .962-.806.81.81 0 0 1 .597 1.104.82.82 0 0 1-.749.502.81.81 0 0 1-.81-.8m-2.41 0a.811.811 0 1 1 .8.8.8.8 0 0 1-.579-.227.8.8 0 0 1-.241-.573zm-2.42 0a.812.812 0 0 1 .962-.806.81.81 0 1 1-.962.806m-2.41 0a.812.812 0 0 1 .966-.805.81.81 0 0 1-.166 1.605.8.8 0 0 1-.8-.8m-2.42 0a.812.812 0 0 1 .962-.806.81.81 0 1 1-.962.806M72.33 127.68h2.82a.698.698 0 0 0 .44-1.159.7.7 0 0 0-.44-.231h-2.82a.7.7 0 0 0-.548.171.7.7 0 0 0-.236.524.698.698 0 0 0 .784.695m-.7 2.52a.69.69 0 0 1 .7-.69h2.82a.699.699 0 0 1 0 1.39h-2.82a.7.7 0 0 1-.7-.7m0 3.23a.7.7 0 0 1 .7-.7h2.82a.699.699 0 0 1 0 1.39h-2.82a.689.689 0 0 1-.7-.69m0 3.22a.7.7 0 0 1 .7-.7h2.82a.699.699 0 0 1 0 1.39h-2.82a.689.689 0 0 1-.7-.69m0 3.22a.7.7 0 0 1 .7-.7h2.82a.699.699 0 0 1 0 1.39h-2.82a.689.689 0 0 1-.7-.69m0 3.22a.7.7 0 0 1 .7-.7h2.82a.699.699 0 0 1 0 1.39h-2.82a.689.689 0 0 1-.7-.69m0 3.22a.7.7 0 0 1 .7-.7h2.82a.699.699 0 0 1 0 1.39h-2.82a.689.689 0 0 1-.7-.69m0 3.22a.7.7 0 0 1 .7-.7h2.82a.7.7 0 0 1 .69.7.69.69 0 0 1-.69.69h-2.82a.689.689 0 0 1-.7-.69M61.09 127a.69.69 0 0 1 .7-.69h7.39a.7.7 0 0 1 .548.171.7.7 0 0 1 .236.524.698.698 0 0 1-.784.695h-7.39a.7.7 0 0 1-.7-.7m0 3.22a.69.69 0 0 1 .7-.69h7.39a.7.7 0 0 1 .548.171.7.7 0 0 1 .236.524.698.698 0 0 1-.784.695h-7.39a.7.7 0 0 1-.502-.212.7.7 0 0 1-.198-.508zm0 3.23a.7.7 0 0 1 .7-.7h7.39a.7.7 0 0 1 .548.171.7.7 0 0 1 .236.524.698.698 0 0 1-.784.695h-7.39a.7.7 0 0 1-.502-.205.7.7 0 0 1-.198-.505zm0 3.22a.7.7 0 0 1 .7-.7h7.39a.7.7 0 0 1 .548.171.7.7 0 0 1 .236.524.698.698 0 0 1-.784.695h-7.39a.7.7 0 0 1-.502-.205.7.7 0 0 1-.198-.505zm0 3.22a.7.7 0 0 1 .7-.7h7.39a.7.7 0 0 1 .548.171.7.7 0 0 1 .236.524.698.698 0 0 1-.784.695h-7.39a.7.7 0 0 1-.502-.205.7.7 0 0 1-.198-.505zm-8.86 3.22a.7.7 0 0 1 .7-.7h7.4a.699.699 0 0 1 0 1.39h-7.4a.7.7 0 0 1-.502-.205.7.7 0 0 1-.198-.505zm0 3.22a.7.7 0 0 1 .7-.7h7.4a.699.699 0 0 1 0 1.39h-7.4a.7.7 0 0 1-.502-.205.7.7 0 0 1-.198-.505zm0 3.22a.7.7 0 0 1 .7-.7h7.4a.7.7 0 0 1 .69.7.69.69 0 0 1-.69.69h-7.4a.7.7 0 0 1-.502-.205.7.7 0 0 1-.198-.505zm5.6-22.55a.81.81 0 0 1 .81-.8.81.81 0 0 1 .72.805.81.81 0 0 1-.72.805.81.81 0 0 1-.81-.81m-2.41 0a.808.808 0 0 1 1.386-.569.807.807 0 0 1-.133 1.247.8.8 0 0 1-.453.132.8.8 0 0 1-.742-.501.8.8 0 0 1-.058-.309M53 127a.81.81 0 1 1 .81.81.8.8 0 0 1-.576-.234A.81.81 0 0 1 53 127m-2.41 0a.81.81 0 0 1 .502-.749.811.811 0 0 1 1.053 1.066.808.808 0 0 1-.755.493.8.8 0 0 1-.8-.81m-2.42 0a.81.81 0 1 1 .81.81.8.8 0 0 1-.576-.234.82.82 0 0 1-.234-.576m-2.41 0a.808.808 0 0 1 1.386-.569.808.808 0 0 1-.133 1.247.8.8 0 0 1-.453.132.8.8 0 0 1-.742-.501.8.8 0 0 1-.058-.309m12.07 6.45a.81.81 0 1 1 1.621 0 .81.81 0 0 1-1.621 0m-2.41 0a.812.812 0 0 1 .966-.805.809.809 0 0 1-.166 1.605.8.8 0 0 1-.573-.241.8.8 0 0 1-.227-.579zm-2.42 0a.811.811 0 1 1 .059.293.8.8 0 0 1-.059-.313zm-2.41 0a.812.812 0 0 1 .965-.805.81.81 0 0 1-.165 1.605.8.8 0 0 1-.573-.241.8.8 0 0 1-.227-.579zm-2.42 0a.812.812 0 0 1 .962-.806.82.82 0 0 1 .642.634.813.813 0 0 1-.794.972.8.8 0 0 1-.576-.241.8.8 0 0 1-.234-.579zm-2.41 0a.812.812 0 0 1 .966-.805.809.809 0 0 1-.166 1.605.8.8 0 0 1-.573-.241.8.8 0 0 1-.227-.579zm3.82 9.26a.811.811 0 1 1 .059.293.8.8 0 0 1-.059-.313zm-2.41 0a.812.812 0 0 1 .966-.805.809.809 0 0 1-.166 1.605.8.8 0 0 1-.573-.241.8.8 0 0 1-.227-.579zm-2.42 0a.812.812 0 0 1 .965-.805.81.81 0 0 1-.165 1.605.8.8 0 0 1-.573-.241.8.8 0 0 1-.227-.579zm-2.42 0a.811.811 0 1 1 .059.293.8.8 0 0 1-.059-.313zm-2.41 0a.812.812 0 0 1 .966-.805.809.809 0 0 1-.166 1.605.8.8 0 0 1-.573-.241.8.8 0 0 1-.227-.579zm-2.42 0a.811.811 0 1 1 .059.293.8.8 0 0 1-.059-.313zm12.08 6.64a.811.811 0 1 1 .059.293.8.8 0 0 1-.059-.313zm-2.41 0a.812.812 0 0 1 .966-.805.809.809 0 0 1-.166 1.605.8.8 0 0 1-.573-.241.8.8 0 0 1-.227-.579zm-2.42 0a.812.812 0 0 1 .965-.805.81.81 0 0 1-.165 1.605.8.8 0 0 1-.573-.241.8.8 0 0 1-.227-.579zm-2.42 0a.811.811 0 1 1 .059.293.8.8 0 0 1-.059-.313zm-2.41 0a.812.812 0 0 1 .966-.805.809.809 0 0 1-.166 1.605.8.8 0 0 1-.573-.241.8.8 0 0 1-.227-.579zm-2.42 0a.811.811 0 1 1 .059.293.8.8 0 0 1-.059-.313zM72.33 154.07h2.82a.692.692 0 0 0 .488-1.181.7.7 0 0 0-.488-.209h-2.82a.7.7 0 0 0-.647.966.7.7 0 0 0 .38.374.7.7 0 0 0 .267.05m-.7 2.53a.69.69 0 0 1 .7-.69h2.82a.692.692 0 0 1 .488 1.182.7.7 0 0 1-.488.208h-2.82a.7.7 0 0 1-.7-.7m0 3.22a.69.69 0 0 1 .7-.69h2.82a.699.699 0 0 1 0 1.39h-2.82a.7.7 0 0 1-.7-.7m0 3.22a.69.69 0 0 1 .7-.69h2.82a.699.699 0 0 1 0 1.39h-2.82a.7.7 0 0 1-.659-.46.7.7 0 0 1-.041-.28zm0 3.22a.69.69 0 0 1 .7-.69h2.82a.699.699 0 0 1 0 1.39h-2.82a.7.7 0 0 1-.7-.7m0 3.22a.69.69 0 0 1 .7-.69h2.82a.699.699 0 0 1 0 1.39h-2.82a.7.7 0 0 1-.7-.7m0 3.22a.69.69 0 0 1 .7-.69h2.82a.699.699 0 0 1 0 1.39h-2.82a.7.7 0 0 1-.7-.7m0 3.23a.7.7 0 0 1 .7-.7h2.82a.699.699 0 0 1 0 1.39h-2.82a.689.689 0 0 1-.7-.69m-10.54-22.55a.7.7 0 0 1 .7-.7h7.39a.7.7 0 0 1 .647.966.7.7 0 0 1-.38.374.7.7 0 0 1-.267.05h-7.39a.689.689 0 0 1-.7-.69m0 3.22a.69.69 0 0 1 .7-.69h7.39a.7.7 0 0 1 .647.424.699.699 0 0 1-.647.966h-7.39a.7.7 0 0 1-.7-.7m0 3.22a.69.69 0 0 1 .7-.69h7.39a.7.7 0 0 1 .548.171.7.7 0 0 1 .236.524.698.698 0 0 1-.784.695h-7.39a.7.7 0 0 1-.7-.7m0 3.22a.69.69 0 0 1 .7-.69h7.39a.7.7 0 0 1 .548.171.7.7 0 0 1 .236.524.698.698 0 0 1-.784.695h-7.39a.7.7 0 0 1-.659-.46.7.7 0 0 1-.041-.28zm0 3.22a.69.69 0 0 1 .7-.69h7.39a.7.7 0 0 1 .548.171.7.7 0 0 1 .236.524.698.698 0 0 1-.784.695h-7.39a.7.7 0 0 1-.7-.7m-8.86 3.22a.69.69 0 0 1 .7-.69h7.4a.699.699 0 0 1 0 1.39h-7.4a.7.7 0 0 1-.7-.7m0 3.22a.69.69 0 0 1 .7-.69h7.4a.699.699 0 0 1 0 1.39h-7.4a.7.7 0 0 1-.7-.7m0 3.23a.7.7 0 0 1 .7-.7h7.4a.699.699 0 0 1 0 1.39h-7.4a.69.69 0 0 1-.7-.69m5.6-22.55a.81.81 0 1 1 1.621 0 .81.81 0 0 1-1.621 0m-2.41 0a.812.812 0 0 1 .966-.805.809.809 0 0 1-.166 1.605.8.8 0 0 1-.8-.8m-2.42 0a.811.811 0 1 1 1.622-.02.811.811 0 0 1-1.622.02m-2.41 0a.812.812 0 0 1 .965-.805.81.81 0 0 1-.165 1.605.8.8 0 0 1-.8-.8m-2.42 0a.812.812 0 0 1 .962-.806.82.82 0 0 1 .642.634.813.813 0 0 1-.794.972.81.81 0 0 1-.81-.8m-2.41 0a.812.812 0 0 1 .966-.805.809.809 0 0 1-.166 1.605.8.8 0 0 1-.8-.8m12.07 6.44a.81.81 0 0 1 .81-.8.807.807 0 0 1 .72.805.81.81 0 0 1-.72.805.81.81 0 0 1-.81-.81m-2.41 0a.808.808 0 0 1 1.386-.569.807.807 0 0 1-.133 1.247.8.8 0 0 1-.453.132.8.8 0 0 1-.742-.501.8.8 0 0 1-.058-.309m-2.42 0a.81.81 0 1 1 .81.81.8.8 0 0 1-.576-.234.81.81 0 0 1-.234-.576m-2.41 0a.81.81 0 0 1 .502-.749.811.811 0 0 1 1.053 1.066.808.808 0 0 1-.755.493.8.8 0 0 1-.8-.81m-2.42 0a.81.81 0 1 1 .81.81.8.8 0 0 1-.576-.234.82.82 0 0 1-.234-.576m-2.41 0a.808.808 0 0 1 1.386-.569.808.808 0 0 1-.133 1.247.8.8 0 0 1-.453.132.8.8 0 0 1-.742-.501.8.8 0 0 1-.058-.309m3.82 9.26a.81.81 0 1 1 .81.81.8.8 0 0 1-.576-.234.82.82 0 0 1-.234-.576m-2.41 0a.808.808 0 0 1 1.386-.569.807.807 0 0 1-.133 1.247.8.8 0 0 1-.453.132.8.8 0 0 1-.742-.501.8.8 0 0 1-.058-.309m-2.42 0a.81.81 0 0 1 .502-.749.811.811 0 0 1 1.053 1.066.809.809 0 0 1-.756.493.8.8 0 0 1-.799-.81m-2.42 0a.81.81 0 1 1 .81.81.8.8 0 0 1-.576-.234.82.82 0 0 1-.234-.576m-2.41 0a.808.808 0 0 1 1.386-.569.808.808 0 0 1-.133 1.247.8.8 0 0 1-.453.132.8.8 0 0 1-.742-.501.8.8 0 0 1-.058-.309m-2.42 0a.81.81 0 1 1 .81.81.8.8 0 0 1-.576-.234.81.81 0 0 1-.234-.576m12.08 6.64a.81.81 0 1 1 .81.81.8.8 0 0 1-.576-.234.82.82 0 0 1-.234-.576m-2.41 0a.808.808 0 0 1 1.386-.569.807.807 0 0 1-.133 1.247.8.8 0 0 1-.453.132.8.8 0 0 1-.742-.501.8.8 0 0 1-.058-.309m-2.42 0a.81.81 0 0 1 .502-.749.811.811 0 0 1 1.053 1.066.809.809 0 0 1-.756.493.8.8 0 0 1-.799-.81m-2.42 0a.81.81 0 1 1 .81.81.8.8 0 0 1-.576-.234.82.82 0 0 1-.234-.576m-2.41 0a.808.808 0 0 1 1.386-.569.808.808 0 0 1-.133 1.247.8.8 0 0 1-.453.132.8.8 0 0 1-.742-.501.8.8 0 0 1-.058-.309m-2.42 0a.81.81 0 1 1 .81.81.8.8 0 0 1-.576-.234.81.81 0 0 1-.234-.576"/><path fill="#fff" stroke="#021526" stroke-miterlimit="10" d="M126.45 226.85h26.16v21.51h-26.16z"/><path stroke="#021526" stroke-miterlimit="10" d="m152.32 238.47-9.88-6.39-5.81 7.85-4.94-2.62-4.65 5.52M129.65 232.08a3.2 3.2 0 0 0 1.975 2.956 3.199 3.199 0 0 0 3.003-5.617 3.204 3.204 0 0 0-4.041.398 3.2 3.2 0 0 0-.937 2.263Z"/><path stroke="#fff" stroke-miterlimit="10" d="M374.12 373.42h-30.73"/><path fill="#fff" d="M367.63 360.97h4.44v12.14h-4.44zM360.12 351.06h4.44v22.04h-4.44zM352.61 354.9h4.44v18.21h-4.44zM345.1 365.44h4.44v7.67h-4.44z"/><path stroke="#fff" stroke-miterlimit="10" d="M359.46 384.75c-11.416 0-20.67-9.254-20.67-20.67s9.254-20.67 20.67-20.67 20.67 9.254 20.67 20.67-9.254 20.67-20.67 20.67Z"/><path stroke="#263238" stroke-linecap="round" stroke-linejoin="round" d="M471 477.27H23.17"/><defs><filter id="a" width="44.46" height="35.929" x="258.82" y="292.2" color-interpolation-filters="sRGB" filterUnits="userSpaceOnUse"><feFlood flood-opacity="0" result="BackgroundImageFix"/><feColorMatrix in="SourceAlpha" result="hardAlpha" values="0 0 0 0 0 0 0 0 0 0 0 0 0 0 0 0 0 0 127 0"/><feOffset dy="4"/><feGaussianBlur stdDeviation="2"/><feComposite in2="hardAlpha" operator="out"/><feColorMatrix values="0 0 0 0 0 0 0 0 0 0 0 0 0 0 0 0 0 0 0.25 0"/><feBlend in2="BackgroundImageFix" result="effect1_dropShadow_58_1941"/><feBlend in="SourceGraphic" in2="effect1_dropShadow_58_1941" result="shape"/></filter></defs></svg>